<?xml version="1.0" encoding="UTF-8"?>
<!-- Generator: visioncortex VTracer 0.6.12 -->
<svg version="1.1" xmlns="http://www.w3.org/2000/svg" width="273" height="127">
<path d="M0 0 C1.75 1.4375 1.75 1.4375 3 3 C3.99 3.33 4.98 3.66 6 4 C8.21751399 7.69585666 9 9.63008373 9 14 C12.3 14 15.6 14 19 14 C19.144375 13.236875 19.28875 12.47375 19.4375 11.6875 C20 9 20 9 21 6 C21.66 6 22.32 6 23 6 C23 5.34 23 4.68 23 4 C25.28892259 1.220594 27.20127175 0.12557909 30.7578125 -0.43359375 C35.77749396 -0.64117456 39.87446122 -0.63429417 44.125 2.25 C48.12195122 6.07317073 48.12195122 6.07317073 49 9 C49 9.99 49 10.98 49 12 C49.99 12.33 50.98 12.66 52 13 C51.835 13.78375 51.67 14.5675 51.5 15.375 C51 18 51 18 51 20 C50.34 20 49.68 20 49 20 C47.95873995 23.18503075 47.52727317 24.73569686 48 28 C50.09016008 31.36485729 52.355879 34.22714952 54.8984375 37.265625 C56.76987003 39.70057439 57.61654273 41.01755459 58 44 C56.375 45.125 56.375 45.125 54 46 C51.97821315 45.40265389 49.98014432 44.72351427 48 44 C45.33638952 43.55285961 42.6888626 43.2781582 40 43 C40 43.66 40 44.32 40 45 C39.34 44.835 39.34 44.835 36 44 C36 44.33 36 44.66 36 45 C35.4946875 45.0515625 35.4946875 45.0515625 32.9375 45.3125 C29 46 29 46 25.8125 47.5625 C17.03568605 51.45684791 7.79087351 48.71706948 -0.86083984 45.8671875 C-8.28663851 43.43238405 -14.66250569 42.65637112 -22.5 43.9375 C-23.7271875 44.13214844 -24.954375 44.32679687 -26.21875 44.52734375 C-27.1365625 44.68332031 -28.054375 44.83929688 -29 45 C-27.95902388 41.13351728 -26.96301592 37.50538557 -25 34 C-24.34 34 -23.68 34 -23 34 C-22.31379969 32.67661368 -21.65213539 31.34050052 -21 30 C-20.79375 29.5771875 -20.79375 29.5771875 -19.75 27.4375 C-19.62625 27.0353125 -19.62625 27.0353125 -19 25 C-19.66 24.01 -20.32 23.02 -21 22 C-22.49982136 16.23145632 -21.8288787 11.23118046 -19 6 C-18.01 5.67 -17.02 5.34 -16 5 C-15.67 4.01 -15.34 3.02 -15 2 C-9.94337157 0.34351827 -5.35222194 -0.52472764 0 0 Z M31 8 C31.33 8.99 31.66 9.98 32 11 C33.98 10.67 35.96 10.34 38 10 C38.66 11.65 39.32 13.3 40 15 C40.66 15 41.32 15 42 15 C40.7156759 12.13496932 39.58401213 9.84572295 37 8 C33.8125 7.8125 33.8125 7.8125 31 8 Z M-13 11 C-13.89882299 14.40716623 -14.62843801 17.74312397 -13 21 C-12.34 20.67 -11.68 20.34 -11 20 C-11.33 18.35 -11.66 16.7 -12 15 C-9.875 12.9375 -9.875 12.9375 -7 11 C-3.6875 11.25 -3.6875 11.25 -1 12 C-0.67 13.32 -0.34 14.64 0 16 C0.66 16 1.32 16 2 16 C1.8125 13.6875 1.8125 13.6875 1 11 C-1.53630232 8.95686758 -3.34156648 8.09635612 -6.5625 7.625 C-9.69150877 8.10638596 -10.89865097 8.59845825 -13 11 Z M28 10 C27.34 11.65 26.68 13.3 26 15 C26.99 15 27.98 15 29 15 C29.66 13.68 30.32 12.36 31 11 C30.01 10.67 29.02 10.34 28 10 Z " fill="#ED1A26" transform="translate(122,8)"/>
<path d="M0 0 C0.99 0 1.98 0 3 0 C3.165 0.66 3.165 0.66 4 4 C4.804375 3.7525 5.60875 3.505 6.4375 3.25 C10.78014676 2.94525286 12.95511042 4.16207632 16.79296875 6.0078125 C23.60711046 9.07116116 31.69032945 8.09892787 39 8 C39 7.34 39 6.68 39 6 C45.58413523 4.35229169 51.78938374 3.613525 58.5625 3.375 C59.47580078 3.33632813 60.38910156 3.29765625 61.33007812 3.2578125 C63.55319924 3.16469748 65.77633613 3.07887834 68 3 C68.165 3.33 68.165 3.33 69 5 C78.96124463 9.8143098 89.75761154 7.95144432 100 5 C100.33 4.67 100.66 4.34 101 4 C103.01964199 3.92755947 105.04167124 3.91622812 107.0625 3.9375 C108.16722656 3.94652344 109.27195313 3.95554688 110.41015625 3.96484375 C111.26480469 3.97644531 112.11945313 3.98804688 113 4 C113 5.32 113 6.64 113 8 C104.57142857 10.28571429 104.57142857 10.28571429 100 10 C99.67 10.66 99.34 11.32 99 12 C96.49609375 12.8515625 96.49609375 12.8515625 93.4375 13.625 C92.42558594 13.88539062 91.41367188 14.14578125 90.37109375 14.4140625 C89.58863281 14.60742188 88.80617187 14.80078125 88 15 C92.37841956 15.32037216 95.12011828 14.58561147 99.0703125 12.7421875 C103.27599531 11.12461719 108.06418331 10.1570368 112.26953125 11.98828125 C112.84058594 12.32214844 113.41164062 12.65601563 114 13 C113.67 13.99 113.34 14.98 113 16 C110.24619413 16.83837427 107.62286249 17.49482079 104.8125 18.0625 C103.29761334 18.38407441 101.78327634 18.70825033 100.26953125 19.03515625 C99.53500732 19.19169678 98.8004834 19.3482373 98.04370117 19.50952148 C96 20 96 20 92.9140625 21.1015625 C86.61747889 23.04286844 77.21188381 23.42923289 71.0625 20.625 C70.051875 20.08875 69.04125 19.5525 68 19 C59.61144161 16.38717034 52.57290768 15.56389999 44.5 19.5 C34.3017907 24.15713827 21.57237924 23.13255681 11 20 C11 19.34 11 18.68 11 18 C2.80303587 16.217416 -3.72734396 16.28231411 -11.5625 19.5 C-20.7660983 23.03595983 -30.97260162 23.97285048 -40.4609375 20.8671875 C-42.42259755 19.98469262 -44.36972098 19.06878359 -46.296875 18.11328125 C-50.5182795 16.37469703 -54.51797047 16.55378025 -59 17 C-57.125 12.125 -57.125 12.125 -56 11 C-48.83291425 10.94096305 -42.71892632 12.08626346 -36.25390625 15.16015625 C-33.70264935 16.1107979 -31.70092634 16.14766969 -29 16 C-29 15.34 -29 14.68 -29 14 C-30.0003125 14.04898438 -31.000625 14.09796875 -32.03125 14.1484375 C-36.21236776 13.99205711 -39.62021456 13.04892125 -43.5 11.625 C-48.29963163 9.9228626 -53.09099748 8.35377131 -58 7 C-57.34 5.68 -56.68 4.36 -56 3 C-54.10333474 3.08772455 -52.20761007 3.19591301 -50.3125 3.3125 C-49.78462891 3.34150391 -49.78462891 3.34150391 -47.11328125 3.48828125 C-44 4 -44 4 -41.66796875 5.4921875 C-37.85279427 7.6483476 -34.3172617 7.64079073 -30 7.8125 C-29.2059375 7.86341797 -28.411875 7.91433594 -27.59375 7.96679688 C-23.18437151 8.18359132 -20.02123028 8.03155905 -16 6 C-12.39963851 4.4496051 -9.05460982 3.52728358 -5.1875 2.875 C-4.21167969 2.70742188 -3.23585937 2.53984375 -2.23046875 2.3671875 C-1.49441406 2.24601562 -0.75835937 2.12484375 0 2 C0 1.34 0 0.68 0 0 Z M-5 8 C-5 8.66 -5 9.32 -5 10 C-4.55849609 10.04898438 -4.55849609 10.04898438 -2.32421875 10.296875 C4.68729551 11.1704901 10.89733384 12.47072805 17.47265625 15.0390625 C24.17142096 17.58604259 29.24436338 18.81484859 36 16 C36.33 15.34 36.66 14.68 37 14 C36.46181641 13.99291016 36.46181641 13.99291016 33.73828125 13.95703125 C24.97112301 13.71397533 18.2200973 12.64879275 10.09375 9.078125 C5.08893075 7.33402132 0.22680204 7.57620524 -5 8 Z M46.1875 9.875 C45.52041016 10.04902344 44.85332031 10.22304688 44.16601562 10.40234375 C41.13717827 11.22755675 39.25564838 11.74435162 37 14 C40.55097465 15.18365822 41.52200593 14.69992539 45 13.5625 C53.41252585 11.12875738 61.43160173 11.70665686 70 13 C69.835 12.505 69.835 12.505 69 10 C61.06042048 7.39910326 54.24023473 7.61542667 46.1875 9.875 Z M-14.8125 11.4375 C-19.14753371 13.21511537 -23.35198788 13.68798067 -28 14 C-27.67 15.32 -27.34 16.64 -27 18 C-22.83299402 17.03265933 -18.85690983 16.00566526 -14.875 14.4375 C-11.61127701 13.160391 -8.49172894 12.43646612 -5 12 C-5 11.34 -5 10.68 -5 10 C-8.69088708 9.72318347 -11.43126642 10.04164004 -14.8125 11.4375 Z M70 13 C72.58411731 14.72274487 74.54902656 15.68895522 77.4375 16.6875 C78.19933594 16.95949219 78.96117187 17.23148438 79.74609375 17.51171875 C82.21829721 18.04729142 83.62983284 17.80445309 86 17 C82.67148232 13.98656045 80.18117187 13.55332456 75.75 13.3125 C74.67234375 13.24675781 73.5946875 13.18101563 72.484375 13.11328125 C71.66453125 13.07589844 70.8446875 13.03851563 70 13 Z " fill="#CBDD9C" transform="translate(108,51)"/>
<path d="M0 0 C5.84476728 -0.98093996 12.15586093 -1.20392174 17.1875 2.25 C21.13207547 6.10691824 21.13207547 6.10691824 22 9 C22 9.99 22 10.98 22 12 C22.99 12.33 23.98 12.66 25 13 C24.835 13.78375 24.67 14.5675 24.5 15.375 C24 18 24 18 24 20 C23.34 20 22.68 20 22 20 C20.95873995 23.18503075 20.52727317 24.73569686 21 28 C23.09016008 31.36485729 25.355879 34.22714952 27.8984375 37.265625 C29.76987003 39.70057439 30.61654273 41.01755459 31 44 C29.375 45.125 29.375 45.125 27 46 C24.97821315 45.40265389 22.98014432 44.72351427 21 44 C18.33638952 43.55285961 15.6888626 43.2781582 13 43 C13 43.66 13 44.32 13 45 C11.68 44.67 10.36 44.34 9 44 C9 44.33 9 44.66 9 45 C8.4946875 45.0515625 8.4946875 45.0515625 5.9375 45.3125 C2 46 2 46 -1.1875 47.5625 C-9.59135523 51.3517383 -18.57462984 48.91090591 -26.796875 45.875 C-27.16039063 45.730625 -27.16039063 45.730625 -29 45 C-26.31158141 42.74754119 -24.35358125 41.11786042 -21 40 C-20.71125 39.236875 -20.4225 38.47375 -20.125 37.6875 C-18.70409582 34.29311778 -16.87412928 33.29930342 -14 31 C-12.11208423 28.65638043 -10.32098745 26.26166789 -8.55078125 23.828125 C-8.03902344 23.22484375 -7.52726562 22.6215625 -7 22 C-6.34 22 -5.68 22 -5 22 C-4.84144531 21.43152344 -4.68289062 20.86304687 -4.51953125 20.27734375 C-2.91082181 14.95349318 -1.1600651 9.87240103 3 6 C6.75 4.6875 6.75 4.6875 10 4 C10.33 3.34 10.66 2.68 11 2 C10.31292969 2.0721875 9.62585938 2.144375 8.91796875 2.21875 C8.46744141 2.26515625 8.46744141 2.26515625 6.1875 2.5 C5.74083984 2.54640625 5.74083984 2.54640625 3.48046875 2.78125 C1 3 1 3 -2 3 C-1.34 2.01 -0.68 1.02 0 0 Z M4 8 C4.33 8.99 4.66 9.98 5 11 C6.98 10.67 8.96 10.34 11 10 C11.66 11.65 12.32 13.3 13 15 C13.66 15 14.32 15 15 15 C13.7156759 12.13496932 12.58401213 9.84572295 10 8 C6.8125 7.8125 6.8125 7.8125 4 8 Z M1 10 C0.34 11.65 -0.32 13.3 -1 15 C-0.01 15 0.98 15 2 15 C2.66 13.68 3.32 12.36 4 11 C3.01 10.67 2.02 10.34 1 10 Z " fill="#F18024" transform="translate(149,8)"/>
<path d="M0 0 C1.75 1.4375 1.75 1.4375 3 3 C3.99 3.33 4.98 3.66 6 4 C8.21751399 7.69585666 9 9.63008373 9 14 C12.3 14 15.6 14 19 14 C19.33 13.01 19.66 12.02 20 11 C19.67 12.65 19.34 14.3 19 16 C15.04 16 11.08 16 7 16 C7 14.35 7 12.7 7 11 C6.34 11 5.68 11 5 11 C4.835 10.01 4.835 10.01 4 5 C1.69 4.835 1.69 4.835 -10 4 C-10 4.66 -10 5.32 -10 6 C-9.69255859 5.98259766 -9.69255859 5.98259766 -8.13671875 5.89453125 C-7.32847656 5.86746094 -6.52023438 5.84039063 -5.6875 5.8125 C-5.28724609 5.79509766 -5.28724609 5.79509766 -3.26171875 5.70703125 C-0.52148416 6.06198392 0.29171079 6.89366282 2 9 C1.67 9.99 1.34 10.98 1 12 C0.6596875 11.7421875 0.6596875 11.7421875 -1.0625 10.4375 C-4.87770731 8.57048365 -6.95476326 8.85512168 -11 10 C-13.78749457 13.15108082 -13.15453573 16.9820711 -13 21 C-13 19.68 -13 18.36 -13 17 C-11.77432294 13.62938808 -10.23414976 11.61707488 -7 10 C-3.8125 10.5625 -3.8125 10.5625 -1 12 C-0.125 14.125 -0.125 14.125 0 16 C0.66 16 1.32 16 2 16 C2.33 15.01 2.66 14.02 3 13 C2.67 15.64 2.34 18.28 2 21 C1.34 21 0.68 21 0 21 C0 20.01 0 19.02 0 18 C-2.31 18.33 -4.62 18.66 -7 19 C-7.33 20.98 -7.66 22.96 -8 25 C-8.99 25.33 -9.98 25.66 -11 26 C-12.31640625 27.8125 -12.31640625 27.8125 -13.5625 30 C-15.79724656 33.89862328 -15.79724656 33.89862328 -18 35 C-18 36.32 -18 37.64 -18 39 C-17.18015625 39.10957031 -16.3603125 39.21914063 -15.515625 39.33203125 C-14.97679688 39.41130859 -14.97679688 39.41130859 -12.25 39.8125 C-11.18265625 39.96332031 -10.1153125 40.11414062 -9.015625 40.26953125 C-5.94548906 41.01320407 -4.33919522 41.92765472 -2 44 C-4.33294775 44.04241723 -6.66702567 44.04092937 -9 44 C-9.165 43.835 -9.165 43.835 -10 43 C-11.69085991 43.06537595 -13.37907507 43.20364726 -15.0625 43.375 C-15.55621094 43.42462891 -15.55621094 43.42462891 -18.0546875 43.67578125 C-21.70929065 44.07807841 -25.35497309 44.51858135 -29 45 C-27.95902388 41.13351728 -26.96301592 37.50538557 -25 34 C-24.34 34 -23.68 34 -23 34 C-22.31379969 32.67661368 -21.65213539 31.34050052 -21 30 C-20.79375 29.5771875 -20.79375 29.5771875 -19.75 27.4375 C-19.62625 27.0353125 -19.62625 27.0353125 -19 25 C-19.66 24.01 -20.32 23.02 -21 22 C-22.49982136 16.23145632 -21.8288787 11.23118046 -19 6 C-18.01 5.67 -17.02 5.34 -16 5 C-15.67 4.01 -15.34 3.02 -15 2 C-9.94337157 0.34351827 -5.35222194 -0.52472764 0 0 Z " fill="#C31A86" transform="translate(122,8)"/>
<path d="M0 0 C0.825 0.33 0.825 0.33 5 2 C5 1.34 5 0.68 5 0 C5.99 0 6.98 0 8 0 C8 0.66 8 1.32 8 2 C9.65 2.33 11.3 2.66 13 3 C13.66 2.01 14.32 1.02 15 0 C17.8203125 -0.29296875 17.8203125 -0.29296875 21.125 -0.1875 C21.67285156 -0.17396484 21.67285156 -0.17396484 24.4453125 -0.10546875 C25.28835937 -0.07066406 26.13140625 -0.03585938 27 0 C27.66 2.31 28.32 4.62 29 7 C29.2475 6.360625 29.495 5.72125 29.75 5.0625 C31 3 31 3 33.0625 2.375 C33.701875 2.25125 34.34125 2.1275 35 2 C35.33 1.34 35.66 0.68 36 0 C36.99 0 37.98 0 39 0 C39 0.99 39 1.98 39 3 C40.65 3 42.3 3 44 3 C45.125 9.75 45.125 9.75 44 12 C42.35 12 40.7 12 39 12 C39 13.32 39 14.64 39 16 C37.68 15.67 36.36 15.34 35 15 C35 14.34 35 13.68 35 13 C32.69 12.34 30.38 11.68 28 11 C27.67 12.65 27.34 14.3 27 16 C23.66666667 16 20.33333333 16 17 16 C15.66216607 16.31478446 14.32796291 16.64587656 13 17 C13 13.33333333 13 9.66666667 13 6 C12.34 9.3 11.68 12.6 11 16 C10.01 16.33 9.02 16.66 8 17 C5.3125 15.5625 5.3125 15.5625 3 14 C2.34 14.66 1.68 15.32 1 16 C0.01 16 -0.98 16 -2 16 C-2.144375 14.88625 -2.28875 13.7725 -2.4375 12.625 C-3 9 -3 9 -4 7 C-3.22265625 5.2734375 -3.22265625 5.2734375 -2.0625 3.375 C-1.381875 2.26125 -0.70125 1.1475 0 0 Z " fill="#7D7D7D" transform="translate(156,102)"/>
<path d="M0 0 C0.33 0 0.66 0 1 0 C0.49800802 3.72908331 -0.04207023 7.36147686 -1 11 C-0.55269531 11.3403125 -0.10539062 11.680625 0.35546875 12.03125 C4.74390426 15.54948401 9.15191775 19.53321777 11 25 C10.12109375 27.2421875 10.12109375 27.2421875 9 29 C2.125 28.125 2.125 28.125 1 27 C-0.34747084 26.76924918 -1.70377565 26.58846937 -3.0625 26.4375 C-4.361875 26.293125 -5.66125 26.14875 -7 26 C-7 26.66 -7 27.32 -7 28 C-8.32 27.67 -9.64 27.34 -11 27 C-11 27.33 -11 27.66 -11 28 C-12.010625 28.103125 -13.02125 28.20625 -14.0625 28.3125 C-18 29 -18 29 -21.1875 30.5625 C-26.11104006 32.85043205 -31.69544716 32.59714995 -37 32 C-37.99 31.34 -38.98 30.68 -40 30 C-38.700625 30.020625 -37.40125 30.04125 -36.0625 30.0625 C-30.25176253 29.4924593 -27.57253974 26.14461724 -23.84765625 21.93359375 C-23.23792969 21.29550781 -22.62820312 20.65742187 -22 20 C-21.34 20 -20.68 20 -20 20 C-20 19.34 -20 18.68 -20 18 C-18.42578125 16.4140625 -18.42578125 16.4140625 -16.3125 14.625 C-15.58417969 14.00753906 -14.85585937 13.39007813 -14.10546875 12.75390625 C-13.41066406 12.17511719 -12.71585938 11.59632812 -12 11 C-11.05125 10.195625 -10.1025 9.39125 -9.125 8.5625 C-7 7 -7 7 -5 7 C-4.34 5.68 -3.68 4.36 -3 3 C-2.34 3 -1.68 3 -1 3 C-0.67 2.01 -0.34 1.02 0 0 Z " fill="#FACD06" transform="translate(169,25)"/>
<path d="M0 0 C9.41002278 0.96355353 9.41002278 0.96355353 14 2 C14.33 3.98 14.66 5.96 15 8 C15.66 8 16.32 8 17 8 C17.914161 11.42096186 18.36103732 14.46381251 18 18 C15.806114 21.48172557 12.92368598 24.12796925 10 27 C8.82257652 28.43294943 7.67354579 29.88999246 6.5625 31.375 C6.08941406 32.00148437 5.61632812 32.62796875 5.12890625 33.2734375 C4 35 4 35 3 38 C-0.63 37.67 -4.26 37.34 -8 37 C-8.33 35.35 -8.66 33.7 -9 32 C-8.4225 31.649375 -7.845 31.29875 -7.25 30.9375 C-4.21628345 28.32513297 -2.86684071 25.53366277 -1 22 C-0.01 22 0.98 22 2 22 C2.33 20.02 2.66 18.04 3 16 C4.155 15.835 4.155 15.835 10 15 C10 15.99 10 16.98 10 18 C10.66 18 11.32 18 12 18 C12.28999065 9.44527596 12.28999065 9.44527596 10 5 C9 4 9 4 6.93359375 3.90234375 C6.52173828 3.90814453 6.52173828 3.90814453 4.4375 3.9375 C3.61121094 3.94652344 2.78492187 3.95554687 1.93359375 3.96484375 C1.61455078 3.97064453 1.61455078 3.97064453 0 4 C0 2.68 0 1.36 0 0 Z " fill="#EC028A" transform="translate(112,11)"/>
<path d="M0 0 C10.05387321 4.72617971 20.67331993 2.97573377 31 0 C31.33 -0.33 31.66 -0.66 32 -1 C34.01964199 -1.07244053 36.04167124 -1.08377188 38.0625 -1.0625 C39.16722656 -1.05347656 40.27195312 -1.04445312 41.41015625 -1.03515625 C42.26480469 -1.02355469 43.11945313 -1.01195312 44 -1 C44 0.32 44 1.64 44 3 C35.57142857 5.28571429 35.57142857 5.28571429 31 5 C30.67 5.66 30.34 6.32 30 7 C21.99360024 10.52619718 15.35741672 11.79209407 7 9 C7 8.34 7 7.68 7 7 C5.41701974 6.5196682 3.83360022 6.04078388 2.25 5.5625 C1.36828125 5.29566406 0.4865625 5.02882813 -0.421875 4.75390625 C-9.32900229 2.1492463 -17.84935721 2.90971065 -27 4 C-24.95658401 0.93487601 -24.28078187 0.28317007 -21 -1 C-17.81206132 -1.51587559 -14.59920193 -1.60082051 -11.375 -1.75 C-10.50359375 -1.80542969 -9.6321875 -1.86085937 -8.734375 -1.91796875 C-7.90164062 -1.96050781 -7.06890625 -2.00304688 -6.2109375 -2.046875 C-5.45087402 -2.08651367 -4.69081055 -2.12615234 -3.90771484 -2.16699219 C-2 -2 -2 -2 0 0 Z " fill="#BED08A" transform="translate(177,56)"/>
<path d="M0 0 C0.66 1.32 1.32 2.64 2 4 C1.67 4.185625 1.67 4.185625 0 5.125 C-2 7 -2 7 -2.4375 10.0625 C-2.293125 11.031875 -2.14875 12.00125 -2 13 C-1.01 13.66 -0.02 14.32 1 15 C0.34 15 -0.32 15 -1 15 C-0.7525 15.53625 -0.505 16.0725 -0.25 16.625 C0.21254774 21.01920353 -3.11662776 23.90271699 -5.7421875 27.1640625 C-8.75496333 29.61389752 -10.59859016 29.47263701 -14.4375 29.375 C-15.54996094 29.36210938 -16.66242188 29.34921875 -17.80859375 29.3359375 C-20.90979983 29.00949475 -23.19003872 28.31306602 -26 27 C-23.31158141 24.74754119 -21.35358125 23.11786042 -18 22 C-17.71125 21.236875 -17.4225 20.47375 -17.125 19.6875 C-15.70409582 16.29311778 -13.87412928 15.29930342 -11 13 C-9.11208423 10.65638043 -7.32098745 8.26166789 -5.55078125 5.828125 C-5.29490234 5.52648437 -5.29490234 5.52648437 -4 4 C-3.34 4 -2.68 4 -2 4 C-1.34 2.68 -0.68 1.36 0 0 Z " fill="#F27F22" transform="translate(146,26)"/>
<path d="M0 0 C0.825 0.33 0.825 0.33 5 2 C5 1.34 5 0.68 5 0 C5.99 0 6.98 0 8 0 C8 0.66 8 1.32 8 2 C8.2990625 2.0721875 8.2990625 2.0721875 9.8125 2.4375 C11.56150404 2.8872439 13.28677023 3.42892341 15 4 C15 3.34 15 2.68 15 2 C15.66 2 16.32 2 17 2 C17.33 2.66 17.66 3.32 18 4 C19.32 3.67 20.64 3.34 22 3 C21.34 2.67 20.68 2.34 20 2 C21.32 2.33 22.64 2.66 24 3 C23.67 3.99 23.34 4.98 23 6 C23.66 6 24.32 6 25 6 C25 6.66 25 7.32 25 8 C24.34 8 23.68 8 23 8 C23.20625 8.78375 23.4125 9.5675 23.625 10.375 C23.74875 11.24125 23.8725 12.1075 24 13 C23.34 13.66 22.68 14.32 22 15 C22 12.69 22 10.38 22 8 C21.34 8 20.68 8 20 8 C19.67 9.32 19.34 10.64 19 12 C19 11.34 19 10.68 19 10 C18.01 10.33 17.02 10.66 16 11 C15.34 10.67 14.68 10.34 14 10 C13.67 8.68 13.34 7.36 13 6 C12.34 9.3 11.68 12.6 11 16 C10.01 16.33 9.02 16.66 8 17 C5.3125 15.5625 5.3125 15.5625 3 14 C2.34 14.66 1.68 15.32 1 16 C0.01 16 -0.98 16 -2 16 C-2.144375 14.88625 -2.28875 13.7725 -2.4375 12.625 C-3 9 -3 9 -4 7 C-3.22265625 5.2734375 -3.22265625 5.2734375 -2.0625 3.375 C-1.381875 2.26125 -0.70125 1.1475 0 0 Z " fill="#9B9B9B" transform="translate(156,102)"/>
<path d="M0 0 C0 1.32 0 2.64 0 4 C-0.57878906 4.13277344 -0.57878906 4.13277344 -3.5078125 4.8046875 C-5.04690993 5.16130764 -6.58597048 5.51808691 -8.125 5.875 C-8.88554687 6.04902344 -9.64609375 6.22304687 -10.4296875 6.40234375 C-13.7308833 7.17072553 -16.88700684 7.95898979 -20.078125 9.1171875 C-23.68667726 10.20747201 -26.86058134 10.26508785 -30.625 10.25 C-31.91664063 10.25515625 -33.20828125 10.2603125 -34.5390625 10.265625 C-37.68410204 10.02424499 -39.38623288 9.67174953 -42 8 C-42 7.34 -42 6.68 -42 6 C-49.95735532 4.11150323 -57.84515697 3.44651878 -66 3 C-62.40775472 0.60516981 -59.72260085 0.61723771 -55.5625 0.625 C-54.85037354 0.62371094 -54.13824707 0.62242188 -53.40454102 0.62109375 C-47.67634447 0.73410379 -42.92389935 2.04134739 -37.5703125 4.10546875 C-34.14524182 5.29747663 -31.58172224 5.39796914 -28 5 C-27.67 4.67 -27.34 4.34 -27 4 C-26.401875 3.938125 -26.401875 3.938125 -23.375 3.625 C-19.184707 3.16024478 -15.84511567 1.74118445 -12 0 C-7.76685033 -1.2699449 -4.32703149 -0.76359379 0 0 Z " fill="#B8CF7A" transform="translate(221,63)"/>
<path d="M0 0 C1.75 1.4375 1.75 1.4375 3 3 C3.99 3.33 4.98 3.66 6 4 C8.21751399 7.69585666 9 9.63008373 9 14 C12.3 14 15.6 14 19 14 C19.33 13.01 19.66 12.02 20 11 C19.67 12.65 19.34 14.3 19 16 C15.04 16 11.08 16 7 16 C7 14.35 7 12.7 7 11 C6.34 11 5.68 11 5 11 C4.67 9.02 4.34 7.04 4 5 C1.69 4.835 1.69 4.835 -10 4 C-10 4.66 -10 5.32 -10 6 C-9.69255859 5.98259766 -9.69255859 5.98259766 -8.13671875 5.89453125 C-7.32847656 5.86746094 -6.52023438 5.84039063 -5.6875 5.8125 C-5.28724609 5.79509766 -5.28724609 5.79509766 -3.26171875 5.70703125 C-0.52148416 6.06198392 0.29171079 6.89366282 2 9 C1.67 9.99 1.34 10.98 1 12 C0.6596875 11.7421875 0.6596875 11.7421875 -1.0625 10.4375 C-4.87770731 8.57048365 -6.95476326 8.85512168 -11 10 C-13.78749457 13.15108082 -13.15453573 16.9820711 -13 21 C-15 20 -15 20 -16.125 16.9375 C-16.41375 15.968125 -16.7025 14.99875 -17 14 C-18.1875 16.25 -18.1875 16.25 -19 19 C-18.505 19.639375 -18.01 20.27875 -17.5 20.9375 C-17.005 21.618125 -16.51 22.29875 -16 23 C-16.8125 26.25 -16.8125 26.25 -18 29 C-18.061875 28.7009375 -18.061875 28.7009375 -18.375 27.1875 C-19 25 -19 25 -21 22 C-22.49982136 16.23145632 -21.8288787 11.23118046 -19 6 C-18.01 5.67 -17.02 5.34 -16 5 C-15.67 4.01 -15.34 3.02 -15 2 C-9.94337157 0.34351827 -5.35222194 -0.52472764 0 0 Z " fill="#A36FB2" transform="translate(122,8)"/>
<path d="M0 0 C5.84476728 -0.98093996 12.15586093 -1.20392174 17.1875 2.25 C21.13207547 6.10691824 21.13207547 6.10691824 22 9 C22 9.99 22 10.98 22 12 C22.99 12.33 23.98 12.66 25 13 C24.835 13.78375 24.67 14.5675 24.5 15.375 C24 18 24 18 24 20 C23.34 20 22.68 20 22 20 C20.57142857 28.57142857 20.57142857 28.57142857 23 32 C21.35 30.68 19.7 29.36 18 28 C18.144375 27.46375 18.28875 26.9275 18.4375 26.375 C19.09453748 23.60084173 19.55219948 20.81474612 20 18 C18.35 19.98 16.7 21.96 15 24 C13.68 23.67 12.36 23.34 11 23 C11.165 21.515 11.165 21.515 12 14 C12.99 14.33 13.98 14.66 15 15 C14.505 14.38125 14.01 13.7625 13.5 13.125 C12 11 12 11 12 9 C10.741875 9 9.48375 9 8.1875 9 C5.79166667 9 3.39583333 9 1 9 C3.58447418 5.12328873 5.62882714 5.19213805 10 4 C10.33 3.34 10.66 2.68 11 2 C10.31292969 2.0721875 9.62585938 2.144375 8.91796875 2.21875 C8.46744141 2.26515625 8.46744141 2.26515625 6.1875 2.5 C5.29417969 2.5928125 4.40085938 2.685625 3.48046875 2.78125 C1 3 1 3 -2 3 C-1.34 2.01 -0.68 1.02 0 0 Z " fill="#DFA359" transform="translate(149,8)"/>
<path d="M0 0 C0.99 0 1.98 0 3 0 C3 0.99 3 1.98 3 3 C3.78375 2.505 4.5675 2.01 5.375 1.5 C8 0 8 0 10 0 C10 0.66 10 1.32 10 2 C10.99 2 11.98 2 13 2 C13.16834933 3.77067416 13.33461909 5.54154612 13.5 7.3125 C13.5928125 8.29863281 13.685625 9.28476563 13.78125 10.30078125 C14 13 14 13 14 16 C9.05 16 4.1 16 -1 16 C-1 12 -1 12 0 10 C-0.66 10 -1.32 10 -2 10 C-2 7.69 -2 5.38 -2 3 C-1.34 3 -0.68 3 0 3 C0 2.01 0 1.02 0 0 Z " fill="#696969" transform="translate(55,102)"/>
<path d="M0 0 C0.64388672 0.00580078 0.64388672 0.00580078 3.90234375 0.03515625 C5.19269531 0.04417969 6.48304687 0.05320312 7.8125 0.0625 C8.81152344 0.07410156 9.81054688 0.08570312 10.83984375 0.09765625 C10.8667795 2.22258766 10.88621003 4.34761537 10.90234375 6.47265625 C10.91394531 7.65601562 10.92554687 8.839375 10.9375 10.05859375 C10.83984375 13.09765625 10.83984375 13.09765625 9.83984375 15.09765625 C7.69407738 15.12451563 5.5482173 15.14398713 3.40234375 15.16015625 C2.20738281 15.17175781 1.01242188 15.18335937 -0.21875 15.1953125 C-3.16015625 15.09765625 -3.16015625 15.09765625 -4.16015625 14.09765625 C-4.25908565 11.93284828 -4.28986725 9.7647184 -4.28515625 7.59765625 C-4.28773437 6.41171875 -4.2903125 5.22578125 -4.29296875 4.00390625 C-4.10800919 -0.04344422 -4.09186436 0.12644822 0 0 Z M-0.16015625 4.09765625 C0.83984375 6.09765625 0.83984375 6.09765625 0.83984375 6.09765625 Z M-0.16015625 9.09765625 C-0.16015625 9.75765625 -0.16015625 10.41765625 -0.16015625 11.09765625 C0.49984375 11.09765625 1.15984375 11.09765625 1.83984375 11.09765625 C1.83984375 10.43765625 1.83984375 9.77765625 1.83984375 9.09765625 C1.17984375 9.09765625 0.51984375 9.09765625 -0.16015625 9.09765625 Z M4.83984375 9.09765625 C4.83984375 9.75765625 4.83984375 10.41765625 4.83984375 11.09765625 C5.49984375 11.09765625 6.15984375 11.09765625 6.83984375 11.09765625 C6.83984375 10.43765625 6.83984375 9.77765625 6.83984375 9.09765625 C6.17984375 9.09765625 5.51984375 9.09765625 4.83984375 9.09765625 Z " fill="#909090" transform="translate(74.16015625,102.90234375)"/>
<path d="M0 0 C0.33 -0.0928125 0.33 -0.0928125 2 -0.5625 C4.62473206 -1.13666014 5.75722562 -0.36168444 8 1 C8 1.99 8 2.98 8 4 C7.67 4.165 7.67 4.165 6 5 C4.875 7.0625 4.875 7.0625 4 9 C3.34 9 2.68 9 2 9 C2.33 9.66 2.66 10.32 3 11 C3.66 10.34 4.32 9.68 5 9 C5.99 9 6.98 9 8 9 C7.67 10.98 7.34 12.96 7 15 C3.04 15 -0.92 15 -5 15 C-5.66 13.68 -6.32 12.36 -7 11 C-6.01 10.34 -5.02 9.68 -4 9 C-4.99 8.67 -5.98 8.34 -7 8 C-7.33 5.69 -7.66 3.38 -8 1 C-4.81734989 -0.93232328 -3.51216452 -0.98779627 0 0 Z " fill="#888888" transform="translate(127,103)"/>
<path d="M0 0 C3.5546875 1.2890625 3.5546875 1.2890625 6.5546875 3.2890625 C2.21568863 2.90165189 -0.93875608 2.51520376 -4.9453125 0.7265625 C-11.29113148 -1.90899941 -18.7128398 -0.93154037 -25.4453125 -0.7109375 C-24.34832031 -0.58976562 -23.25132812 -0.46859375 -22.12109375 -0.34375 C-20.66662427 -0.17484387 -19.21219946 -0.00555269 -17.7578125 0.1640625 C-17.03658203 0.24269531 -16.31535156 0.32132812 -15.57226562 0.40234375 C-11.56015318 0.8786676 -8.14555738 1.55206392 -4.4453125 3.2890625 C-7.4453125 4.2890625 -7.4453125 4.2890625 -11.0078125 3.3515625 C-18.35882103 1.42342911 -24.04432596 1.42435497 -30.9453125 4.7890625 C-38.86491955 8.46898463 -46.91869985 7.71539313 -55.4453125 7.2890625 C-55.4453125 6.9590625 -55.4453125 6.6290625 -55.4453125 6.2890625 C-50.1653125 6.2890625 -44.8853125 6.2890625 -39.4453125 6.2890625 C-39.4453125 5.6290625 -39.4453125 4.9690625 -39.4453125 4.2890625 C-41.7553125 3.9590625 -44.0653125 3.6290625 -46.4453125 3.2890625 C-46.1153125 2.6290625 -45.7853125 1.9690625 -45.4453125 1.2890625 C-42.62998056 0.51110321 -39.85966791 -0.16414589 -37.0078125 -0.7734375 C-23.26455055 -3.79134563 -13.65552591 -4.33705739 0 0 Z " fill="#D9E7B5" transform="translate(183.4453125,65.7109375)"/>
<path d="M0 0 C6.70618394 0.44097736 10.9442351 1.30006298 16.5234375 5.01953125 C24.03895807 7.59019951 33.18102335 6.51595206 40.5234375 4.01953125 C42.85131677 3.6500266 45.18388895 3.30600658 47.5234375 3.01953125 C43.09517764 8.05361168 36.53516872 9.73929169 30.0390625 10.34375 C22.94404682 10.44444345 16.39105914 9.7235276 9.5234375 8.01953125 C7.1486794 7.47680504 4.77367117 6.93517235 2.3984375 6.39453125 C0.43976302 5.93765799 -1.51869378 5.47984521 -3.4765625 5.01953125 C-3.4765625 0.02741769 -3.4765625 0.02741769 0 0 Z " fill="#C7D692" transform="translate(54.4765625,53.98046875)"/>
<path d="M0 0 C3.66075376 -0.3327958 5.39500988 -0.46170299 8.375 1.8125 C10 4 10 4 10 7 C9.01 7.66 8.02 8.32 7 9 C7.495 9.433125 7.99 9.86625 8.5 10.3125 C10 12 10 12 10 15 C9.21625 14.79375 8.4325 14.5875 7.625 14.375 C6.75875 14.25125 5.8925 14.1275 5 14 C4.34 14.66 3.68 15.32 3 16 C2.01 16 1.02 16 0 16 C-0.33 15.34 -0.66 14.68 -1 14 C-1.66 14.33 -1.66 14.33 -5 16 C-5.625 13.6875 -5.625 13.6875 -6 11 C-5.34 10.01 -4.68 9.02 -4 8 C-4.66 7.67 -5.32 7.34 -6 7 C-5.67 5.68 -5.34 4.36 -5 3 C-3.68 3 -2.36 3 -1 3 C-0.67 2.01 -0.34 1.02 0 0 Z " fill="#6D6D6D" transform="translate(142,102)"/>
<path d="M0 0 C6.39798793 0.43196606 11.569002 1.41913684 17.375 4.1796875 C19.9262569 5.13032915 21.92797991 5.16720094 24.62890625 5.01953125 C24.62890625 4.35953125 24.62890625 3.69953125 24.62890625 3.01953125 C24.07203125 3.04015625 24.07203125 3.04015625 21.25390625 3.14453125 C17.62890625 3.01953125 17.62890625 3.01953125 15.62890625 1.01953125 C16.85867187 1.03113281 18.0884375 1.04273438 19.35546875 1.0546875 C20.98827972 1.06407147 22.62109235 1.07317102 24.25390625 1.08203125 C25.06214844 1.09041016 25.87039062 1.09878906 26.703125 1.10742188 C31.13232543 1.12542675 35.26774049 0.91575787 39.62890625 0.01953125 C37.10409932 2.54433818 35.49067591 2.57691758 32.00390625 3.14453125 C31.00101563 3.31210938 29.998125 3.4796875 28.96484375 3.65234375 C28.19398437 3.77351563 27.423125 3.8946875 26.62890625 4.01953125 C26.29890625 5.00953125 25.96890625 5.99953125 25.62890625 7.01953125 C22.65890625 7.01953125 19.68890625 7.01953125 16.62890625 7.01953125 C16.95890625 7.67953125 17.28890625 8.33953125 17.62890625 9.01953125 C23.89890625 9.01953125 30.16890625 9.01953125 36.62890625 9.01953125 C33.62964044 12.01879706 30.27684143 11.44398037 26.25390625 11.45703125 C25.8475293 11.45896484 25.8475293 11.45896484 23.79101562 11.46875 C17.55135427 11.35018161 12.94328565 9.91492886 7.33203125 7.1328125 C3.11062675 5.39422828 -0.88906422 5.5733115 -5.37109375 6.01953125 C-3.06560176 0.02525207 -3.06560176 0.02525207 0 0 Z " fill="#E4EEC2" transform="translate(54.37109375,61.98046875)"/>
<path d="M0 0 C9.41002278 0.96355353 9.41002278 0.96355353 14 2 C14.33 3.98 14.66 5.96 15 8 C15.66 8 16.32 8 17 8 C17.914161 11.42096186 18.36103732 14.46381251 18 18 C15.806114 21.48172557 12.92368598 24.12796925 10 27 C8.82257652 28.43294943 7.67354579 29.88999246 6.5625 31.375 C6.08941406 32.00148437 5.61632812 32.62796875 5.12890625 33.2734375 C4 35 4 35 3 38 C2.34 37.67 1.68 37.34 1 37 C3.48515166 32.31644496 6.13336074 28.4757509 9.73046875 24.578125 C11 23 11 23 12 20 C9.03 19.67 6.06 19.34 3 19 C3 18.01 3 17.02 3 16 C4.155 15.835 4.155 15.835 10 15 C10 15.99 10 16.98 10 18 C10.66 18 11.32 18 12 18 C12.28999065 9.44527596 12.28999065 9.44527596 10 5 C9 4 9 4 6.93359375 3.90234375 C6.52173828 3.90814453 6.52173828 3.90814453 4.4375 3.9375 C4.02435547 3.94201172 4.02435547 3.94201172 1.93359375 3.96484375 C1.61455078 3.97064453 1.61455078 3.97064453 0 4 C0 2.68 0 1.36 0 0 Z " fill="#E90978" transform="translate(112,11)"/>
<path d="M0 0 C0.99 0 1.98 0 3 0 C3 1.98 3 3.96 3 6 C3.33 4.02 3.66 2.04 4 0 C4.99 0 5.98 0 7 0 C7 1.32 7 2.64 7 4 C8.32 3.67 9.64 3.34 11 3 C11 4.32 11 5.64 11 7 C10.34 7.66 9.68 8.32 9 9 C8.67 9.495 8.67 9.495 7 12 C8.65 11.34 10.3 10.68 12 10 C12.33 10.99 12.66 11.98 13 13 C12.67 13.495 12.67 13.495 11 16 C7.375 16.1875 7.375 16.1875 4 16 C3.67 14.35 3.34 12.7 3 11 C2.67 12.98 2.34 14.96 2 17 C1.01 17 0.02 17 -1 17 C-1 14.69 -1 12.38 -1 10 C-1.66 10 -2.32 10 -3 10 C-3.36265043 5.76907828 -2.60250805 3.37362154 0 0 Z " fill="#636363" transform="translate(106,102)"/>
<path d="M0 0 C3.41021743 0.78697325 6.68885166 1.87119943 10 3 C10 3.99 10 4.98 10 6 C9.01 6 8.02 6 7 6 C6.67 7.65 6.34 9.3 6 11 C7.32 11.66 8.64 12.32 10 13 C10 13.99 10 14.98 10 16 C9.43152344 15.91621094 8.86304687 15.83242187 8.27734375 15.74609375 C3.23364455 15.08089803 -1.00294069 15.0431163 -6 16 C-5.6875 14.125 -5.6875 14.125 -5 12 C-4.01 11.34 -3.02 10.68 -2 10 C-2.33 8.68 -2.66 7.36 -3 6 C-3.99 6 -4.98 6 -6 6 C-6 5.01 -6 4.02 -6 3 C-2.25 1.875 -2.25 1.875 0 3 C0 2.01 0 1.02 0 0 Z M1 6 C1 6.66 1 7.32 1 8 C1.66 8 2.32 8 3 8 C3 7.34 3 6.68 3 6 C2.34 6 1.68 6 1 6 Z " fill="#737373" transform="translate(92,102)"/>
<path d="M0 0 C3.24198486 3.06674243 6.19934278 5.8690805 8 10 C7.1875 12.3125 7.1875 12.3125 6 14 C-0.875 13.125 -0.875 13.125 -2 12 C-3.34747084 11.76924918 -4.70377565 11.58846937 -6.0625 11.4375 C-7.361875 11.293125 -8.66125 11.14875 -10 11 C-10 11.66 -10 12.32 -10 13 C-11.32 12.67 -12.64 12.34 -14 12 C-14 12.33 -14 12.66 -14 13 C-15.010625 13.103125 -16.02125 13.20625 -17.0625 13.3125 C-21 14 -21 14 -24.1875 15.5625 C-29.11104006 17.85043205 -34.69544716 17.59714995 -40 17 C-40.99 16.34 -41.98 15.68 -43 15 C-42.51789063 14.93941406 -42.51789063 14.93941406 -40.078125 14.6328125 C-39.44648438 14.54902344 -39.44648438 14.54902344 -36.25 14.125 C-34.99703125 13.96257813 -33.7440625 13.80015625 -32.453125 13.6328125 C-29.46367077 13.08497134 -27.58800808 12.47886176 -25 11 C-19.58358 9.12508538 -14.52045149 8.81896574 -8.8125 8.8125 C-8.12317383 8.81169434 -7.43384766 8.81088867 -6.72363281 8.81005859 C-3.03230835 8.85027884 0.41040043 9.12873797 4 10 C4 8.68 4 7.36 4 6 C2.68 5.34 1.36 4.68 0 4 C0 2.68 0 1.36 0 0 Z " fill="#F8E89F" transform="translate(172,40)"/>
<path d="M0 0 C1.98 0 3.96 0 6 0 C6.26554687 0.68707031 6.53109375 1.37414062 6.8046875 2.08203125 C7.15789063 2.98308594 7.51109375 3.88414063 7.875 4.8125 C8.04902344 5.25916016 8.04902344 5.25916016 8.9296875 7.51953125 C10 10 10 10 12 13 C12 13.99 12 14.98 12 16 C10.02 16 8.04 16 6 16 C6 14.68 6 13.36 6 12 C3.69 12 1.38 12 -1 12 C-0.67 12.99 -0.34 13.98 0 15 C-1 16 -1 16 -3.5625 16.0625 C-4.366875 16.041875 -5.17125 16.02125 -6 16 C-5.20646205 12.29682289 -3.70325528 9.32377464 -1.9375 6 C-1.00499339 4.01065256 -0.45925984 2.14321257 0 0 Z M2 6 C1.67 6.99 1.34 7.98 1 9 C1.99 9 2.98 9 4 9 C3.67 8.01 3.34 7.02 3 6 C2.67 6 2.34 6 2 6 Z " fill="#7D7D7D" transform="translate(15,79)"/>
<path d="M0 0 C0.55107422 0.00580078 0.55107422 0.00580078 3.33984375 0.03515625 C3.89220703 0.03966797 3.89220703 0.03966797 6.6875 0.0625 C7.54214844 0.07410156 8.39679688 0.08570313 9.27734375 0.09765625 C9.27734375 1.41765625 9.27734375 2.73765625 9.27734375 4.09765625 C0.84877232 6.38337054 0.84877232 6.38337054 -3.72265625 6.09765625 C-4.05265625 6.75765625 -4.38265625 7.41765625 -4.72265625 8.09765625 C-12.72905601 11.62385343 -19.36523953 12.88975032 -27.72265625 10.09765625 C-27.72265625 9.76765625 -27.72265625 9.43765625 -27.72265625 9.09765625 C-26.72363281 9.03707031 -25.72460938 8.97648437 -24.6953125 8.9140625 C-24.05013672 8.87216797 -24.05013672 8.87216797 -20.78515625 8.66015625 C-19.49738281 8.57894531 -18.20960938 8.49773438 -16.8828125 8.4140625 C-13.72265625 8.09765625 -13.72265625 8.09765625 -12.72265625 7.09765625 C-11.0564851 7.05701793 -9.3887753 7.05493525 -7.72265625 7.09765625 C-7.72265625 6.43765625 -7.72265625 5.77765625 -7.72265625 5.09765625 C-8.57472656 5.25878906 -9.42679688 5.41992188 -10.3046875 5.5859375 C-13.72030124 6.09730367 -16.95858064 6.26511226 -20.41015625 6.28515625 C-21.52777344 6.29933594 -22.64539063 6.31351563 -23.796875 6.328125 C-26.72265625 6.09765625 -26.72265625 6.09765625 -29.72265625 4.09765625 C-29.01882812 4.13246094 -28.315 4.16726562 -27.58984375 4.203125 C-19.31750869 4.42991225 -11.70319886 3.29486698 -3.72265625 1.09765625 C-2.72265625 0.09765625 -2.72265625 0.09765625 0 0 Z " fill="#D4E3A9" transform="translate(211.72265625,54.90234375)"/>
<path d="M0 0 C4.3124594 1.59720719 6.42143673 4.31633819 9 8 C8.8125 10.375 8.8125 10.375 8 12 C7.34 12 6.68 12 6 12 C5.67 13.32 5.34 14.64 5 16 C3.02 16.33 1.04 16.66 -1 17 C-1.433125 16.34 -1.86625 15.68 -2.3125 15 C-2.5909375 14.67 -2.5909375 14.67 -4 13 C-4.99 13 -5.98 13 -7 13 C-6.75 9.625 -6.75 9.625 -6 6 C-4.0625 4.8125 -4.0625 4.8125 -2 4 C-0.75 1.875 -0.75 1.875 0 0 Z M1 6 C1 7.98 1 9.96 1 12 C2.32 11.67 3.64 11.34 5 11 C4.67 9.35 4.34 7.7 4 6 C3.01 6 2.02 6 1 6 Z " fill="#949494" transform="translate(209,102)"/>
<path d="M0 0 C2.31 0 4.62 0 7 0 C7.2475 0.804375 7.495 1.60875 7.75 2.4375 C9.26078647 6.74324143 11.10188856 10.85364007 13 15 C9.25 16.125 9.25 16.125 7 15 C7 14.01 7 13.02 7 12 C4.125 12.3125 4.125 12.3125 1 13 C0.67 13.495 0.67 13.495 -1 16 C-2.32 15.67 -3.64 15.34 -5 15 C-4.731875 14.360625 -4.46375 13.72125 -4.1875 13.0625 C0 2.26315789 0 2.26315789 0 0 Z M3 6 C2.67 6.99 2.34 7.98 2 9 C2.99 8.67 3.98 8.34 5 8 C4.34 7.34 3.68 6.68 3 6 Z " fill="#7C7C7C" transform="translate(219,79)"/>
<path d="M0 0 C0.50466797 0.00580078 0.50466797 0.00580078 3.05859375 0.03515625 C4.07050781 0.04417969 5.08242187 0.05320312 6.125 0.0625 C6.51623047 0.06830078 6.51623047 0.06830078 8.49609375 0.09765625 C8.49609375 0.75765625 8.49609375 1.41765625 8.49609375 2.09765625 C9.15609375 2.42765625 9.81609375 2.75765625 10.49609375 3.09765625 C10.49609375 6.06765625 10.49609375 9.03765625 10.49609375 12.09765625 C5.67853352 13.24811839 1.46305436 14.23881321 -3.50390625 14.09765625 C-3.53076563 11.95188988 -3.55023713 9.8060298 -3.56640625 7.66015625 C-3.57800781 6.46519531 -3.58960937 5.27023438 -3.6015625 4.0390625 C-3.47195922 0.13541183 -3.47195922 0.13541183 0 0 Z M0.49609375 4.09765625 C0.49609375 4.42765625 0.49609375 4.75765625 0.49609375 5.09765625 C2.47609375 5.09765625 4.45609375 5.09765625 6.49609375 5.09765625 C6.49609375 4.76765625 6.49609375 4.43765625 6.49609375 4.09765625 C4.51609375 4.09765625 2.53609375 4.09765625 0.49609375 4.09765625 Z M1.49609375 8.09765625 C1.16609375 8.75765625 0.83609375 9.41765625 0.49609375 10.09765625 C2.47609375 10.09765625 4.45609375 10.09765625 6.49609375 10.09765625 C6.49609375 9.43765625 6.49609375 8.77765625 6.49609375 8.09765625 C4.84609375 8.09765625 3.19609375 8.09765625 1.49609375 8.09765625 Z " fill="#676568" transform="translate(98.50390625,80.90234375)"/>
<path d="M0 0 C3.84046467 0.02762924 6.13077328 0.91057996 9.25 3.25 C8.74396008 5.41874252 8.25016187 7.24967627 7.25 9.25 C8.1875 11.875 8.1875 11.875 9.25 14.25 C6.875 13.9375 6.875 13.9375 4.25 13.25 C3.59 12.26 2.93 11.27 2.25 10.25 C1.59 10.25 0.93 10.25 0.25 10.25 C-0.08 11.57 -0.41 12.89 -0.75 14.25 C-2.07 13.92 -3.39 13.59 -4.75 13.25 C-4.77686553 11.27090602 -4.79633375 9.29171029 -4.8125 7.3125 C-4.82410156 6.21035156 -4.83570313 5.10820313 -4.84765625 3.97265625 C-4.69711945 -0.22430964 -4.37075956 0.29138397 0 0 Z M-0.75 4.25 C-0.09 4.58 -0.09 4.58 3.25 6.25 C3.91 5.59 4.57 4.93 5.25 4.25 C3.27 4.25 1.29 4.25 -0.75 4.25 Z " fill="#8B8B8B" transform="translate(165.75,80.75)"/>
<path d="M0 0 C3.63366391 0.1816832 7.06061936 0.49811936 9.75 3.1875 C10.20459858 5.84213121 10.45243238 8.50939138 10.75 11.1875 C7.49576996 13.3569867 5.94339748 13.56771471 2.125 13.875 C1.63386719 13.91818359 1.63386719 13.91818359 -0.8515625 14.13671875 C-1.64304687 14.15347656 -2.43453125 14.17023438 -3.25 14.1875 C-4.25 13.1875 -4.25 13.1875 -4.3828125 10.5 C-4.38023438 9.406875 -4.37765625 8.31375 -4.375 7.1875 C-4.37757812 6.094375 -4.38015625 5.00125 -4.3828125 3.875 C-4.18887306 -0.04942162 -4.00786928 0.23122323 0 0 Z M-0.25 4.1875 C-0.25 6.1675 -0.25 8.1475 -0.25 10.1875 C1.73 10.1875 3.71 10.1875 5.75 10.1875 C5.792721 8.52138095 5.79063832 6.85367115 5.75 5.1875 C4.75 4.1875 4.75 4.1875 2.1875 4.125 C1.383125 4.145625 0.57875 4.16625 -0.25 4.1875 Z " fill="#979797" transform="translate(33.25,80.8125)"/>
<path d="M0 0 C0.77988281 -0.01417969 1.55976562 -0.02835937 2.36328125 -0.04296875 C4.8907668 0.20765587 6.50468031 0.92376228 8.6875 2.1875 C8.5225 3.115625 8.3575 4.04375 8.1875 5 C7.32929104 10.47108209 7.32929104 10.47108209 8.6875 13.1875 C7.0375 13.8475 5.3875 14.5075 3.6875 15.1875 C3.419375 14.383125 3.15125 13.57875 2.875 12.75 C2.483125 11.904375 2.09125 11.05875 1.6875 10.1875 C0.6975 9.8575 -0.2925 9.5275 -1.3125 9.1875 C-0.9825 10.8375 -0.6525 12.4875 -0.3125 14.1875 C-1.9625 13.8575 -3.6125 13.5275 -5.3125 13.1875 C-5.33936553 11.20840602 -5.35883375 9.22921029 -5.375 7.25 C-5.38660156 6.14785156 -5.39820313 5.04570313 -5.41015625 3.91015625 C-5.25495078 -0.41697238 -3.91826738 0.03206438 0 0 Z M-1.3125 4.1875 C-0.9825 4.8475 -0.6525 5.5075 -0.3125 6.1875 C1.3375 5.8575 2.9875 5.5275 4.6875 5.1875 C4.6875 4.8575 4.6875 4.5275 4.6875 4.1875 C2.7075 4.1875 0.7275 4.1875 -1.3125 4.1875 Z " fill="#848484" transform="translate(67.3125,80.8125)"/>
<path d="M0 0 C0.99 0 1.98 0 3 0 C3.165 0.66 3.165 0.66 4 4 C4.86625 3.773125 5.7325 3.54625 6.625 3.3125 C10.68338409 2.9367237 12.55166676 3.94742069 16 6 C13 7 13 7 10 6 C5.33032246 5.86409553 0.67262015 5.95713193 -4 6 C-1.69 6.165 -1.69 6.165 10 7 C10 7.66 10 8.32 10 9 C4.84828377 9.09038099 0.08086796 8.84681133 -5 8 C-5 8.66 -5 9.32 -5 10 C-6.485 10.165 -6.485 10.165 -14 11 C-12 9 -12 9 -9 7 C-9.70125 7.309375 -10.4025 7.61875 -11.125 7.9375 C-16.24034645 9.82795412 -21.20349603 10.13769673 -26.625 10.125 C-27.73101562 10.12757812 -28.83703125 10.13015625 -29.9765625 10.1328125 C-32.5118155 10.0214448 -34.58917487 9.74088772 -37 9 C-36.67 8.34 -36.34 7.68 -36 7 C-34.97519531 7.09539063 -33.95039062 7.19078125 -32.89453125 7.2890625 C-31.53390569 7.40166599 -30.17322547 7.51361038 -28.8125 7.625 C-28.47573242 7.65722656 -28.47573242 7.65722656 -26.77148438 7.8203125 C-22.57714656 8.14767545 -19.76107274 7.85841241 -16 6 C-12.39963851 4.4496051 -9.05460982 3.52728358 -5.1875 2.875 C-4.21167969 2.70742188 -3.23585937 2.53984375 -2.23046875 2.3671875 C-1.49441406 2.24601562 -0.75835937 2.12484375 0 2 C0 1.34 0 0.68 0 0 Z " fill="#DCE9BB" transform="translate(108,51)"/>
<path d="M0 0 C-0.33 1.32 -0.66 2.64 -1 4 C-3.64 4 -6.28 4 -9 4 C-9 5.32 -9 6.64 -9 8 C-8.34 8 -7.68 8 -7 8 C-7 7.01 -7 6.02 -7 5 C-4.36 5 -1.72 5 1 5 C1 6.98 1 8.96 1 11 C-2.41540279 13.10178633 -5.02251415 13.56821226 -9 13 C-12.04325737 10.68447809 -13.709599 9.19064408 -14.625 5.4375 C-14 3 -14 3 -12.0625 0.625 C-7.80907441 -1.6319197 -4.60084372 -0.92217347 0 0 Z " fill="#939393" transform="translate(207,82)"/>
<path d="M0 0 C4.92127034 -0.16682272 8.50343896 -0.24828052 13 2 C13.125 4.375 13.125 4.375 13 7 C12.34 7.66 11.68 8.32 11 9 C11.66 9.66 12.32 10.32 13 11 C12.67 11.99 12.34 12.98 12 14 C10.68 13.67 9.36 13.34 8 13 C7.67 11.68 7.34 10.36 7 9 C6.01 9 5.02 9 4 9 C4 10.65 4 12.3 4 14 C2.68 14 1.36 14 0 14 C-0.91297308 9.02936879 -0.91297308 4.97063121 0 0 Z M4 4 C4 4.66 4 5.32 4 6 C5.65 5.67 7.3 5.34 9 5 C9 4.67 9 4.34 9 4 C7.35 4 5.7 4 4 4 Z " fill="#929292" transform="translate(234,81)"/>
<path d="M0 0 C2 1.625 2 1.625 3 4 C2.9375 7.625 2.9375 7.625 2 11 C0.375 12.5 0.375 12.5 -2 13 C-5.40841388 12.8206098 -8.00045094 12.61262685 -10.9375 10.8125 C-12.51621675 8.11939495 -12.3187182 6.05969475 -12 3 C-8.69167681 -1.96248478 -5.44333401 -1.26363111 0 0 Z M-7 3 C-7.33 4.65 -7.66 6.3 -8 8 C-3.25 9.125 -3.25 9.125 -1 8 C-1 6.68 -1 5.36 -1 4 C-1.99 3.835 -1.99 3.835 -7 3 Z " fill="#7E7E7E" transform="translate(57,82)"/>
<path d="M0 0 C0.33 0.66 0.66 1.32 1 2 C3.0625 2.625 3.0625 2.625 5 3 C7.28961385 9.26631158 7.28961385 9.26631158 6.0625 12.375 C3.05995834 14.74063889 0.7869577 14.93470763 -3 15 C-5.875 13.875 -5.875 13.875 -8 12 C-9.19118265 8.68170547 -9.10762276 6.32286828 -8 3 C-7.01 3 -6.02 3 -5 3 C-5 2.34 -5 1.68 -5 1 C-3.35 0.67 -1.7 0.34 0 0 Z M-2 4 C-3.5625 5.25 -3.5625 5.25 -5 7 C-4.6875 9.1875 -4.6875 9.1875 -4 11 C-2.02 11 -0.04 11 2 11 C2 9.35 2 7.7 2 6 C0.68 5.34 -0.64 4.68 -2 4 Z " fill="#959595" transform="translate(185,80)"/>
<path d="M0 0 C0.66 0.33 1.32 0.66 2 1 C2 2.32 2 3.64 2 5 C1.01 5.33 0.02 5.66 -1 6 C-1 7.32 -1 8.64 -1 10 C-2.65 10 -4.3 10 -6 10 C-5 11 -5 11 -1.4375 11.0625 C-0.8703125 11.0521875 -0.8703125 11.0521875 2 11 C2 12.32 2 13.64 2 15 C-1.96 15 -5.92 15 -10 15 C-10.33 10.71 -10.66 6.42 -11 2 C-6.80104745 0.95026186 -4.20594226 1.27204845 0 2 C0 1.34 0 0.68 0 0 Z " fill="#B7B7B7" transform="translate(135,80)"/>
<path d="M0 0 C-0.33 0.99 -0.66 1.98 -1 3 C-2.85546875 3.9140625 -2.85546875 3.9140625 -5.1875 4.625 C-5.94417969 4.86476563 -6.70085937 5.10453125 -7.48046875 5.3515625 C-13.17854467 6.81804405 -18.53185443 7.13118073 -24.375 7.0625 C-25.11105469 7.05798828 -25.84710938 7.05347656 -26.60546875 7.04882812 C-28.40368158 7.03715142 -30.20185197 7.01922011 -32 7 C-32.33 6.01 -32.66 5.02 -33 4 C-31.90300781 3.87882812 -30.80601563 3.75765625 -29.67578125 3.6328125 C-28.22131177 3.46390637 -26.76688696 3.29461519 -25.3125 3.125 C-24.59126953 3.04636719 -23.87003906 2.96773438 -23.12695312 2.88671875 C-19.07540263 2.40571276 -15.78086396 1.59565276 -12 0 C-9.39453125 -0.44921875 -9.39453125 -0.44921875 -6.8125 -0.6875 C-5.95269531 -0.77386719 -5.09289062 -0.86023438 -4.20703125 -0.94921875 C-2 -1 -2 -1 0 0 Z " fill="#BFD283" transform="translate(104,65)"/>
<path d="M0 0 C0.33 0.99 0.66 1.98 1 3 C0.67 3.495 0.67 3.495 -1 6 C-1.66 6 -2.32 6 -3 6 C-3.226875 6.53625 -3.45375 7.0725 -3.6875 7.625 C-6.56484789 12.83162952 -10.82952096 16.82952096 -15 21 C-15.66 21.99 -16.32 22.98 -17 24 C-17.99 23.67 -18.98 23.34 -20 23 C-20.33 23.66 -20.66 24.32 -21 25 C-23.31 25 -25.62 25 -28 25 C-25.375 20.125 -25.375 20.125 -22 19 C-21.3162955 17.67532254 -20.65035814 16.34136367 -20 15 C-19.01 14.34 -18.02 13.68 -17 13 C-17 14.32 -17 15.64 -17 17 C-13.44200078 15.81400026 -13.31424273 15.17441588 -11.625 12 C-9.34761236 8.12359551 -9.34761236 8.12359551 -6.1875 7 C-5.465625 7 -4.74375 7 -4 7 C-3.896875 6.401875 -3.79375 5.80375 -3.6875 5.1875 C-2.91123545 2.71756736 -1.92911079 1.67748765 0 0 Z " fill="#EA1E1E" transform="translate(145,24)"/>
<path d="M0 0 C4.95 0 9.9 0 15 0 C15 0.99 15 1.98 15 3 C11.7 3 8.4 3 5 3 C5 3.99 5 4.98 5 6 C6.155 5.835 6.155 5.835 12 5 C12 6.32 12 7.64 12 9 C9.69 9 7.38 9 5 9 C5 11.31 5 13.62 5 16 C3.68 16.33 2.36 16.66 1 17 C-0.80878388 11.57364835 -0.05200784 5.66885438 0 0 Z " fill="#868586" transform="translate(144,79)"/>
<path d="M0 0 C2.8984375 -0.46875 2.8984375 -0.46875 6.375 -0.5 C7.51710937 -0.5309375 8.65921875 -0.561875 9.8359375 -0.59375 C13 0 13 0 15.30078125 2.44921875 C15.86152344 3.29097656 16.42226562 4.13273438 17 5 C17.598125 5.433125 18.19625 5.86625 18.8125 6.3125 C20.34438568 8.48939018 20.07241144 9.51196177 19.8125 12.125 C19.544375 13.40375 19.27625 14.6825 19 16 C18.34 16.33 17.68 16.66 17 17 C16.95875 16.236875 16.9175 15.47375 16.875 14.6875 C16 12 16 12 13.3125 10.1875 C9.90799531 8.96701719 7.57938294 8.76137447 4 9 C3.01 9 2.02 9 1 9 C3.58447418 5.12328873 5.62882714 5.19213805 10 4 C10.33 3.34 10.66 2.68 11 2 C10.31292969 2.0721875 9.62585938 2.144375 8.91796875 2.21875 C8.46744141 2.26515625 8.46744141 2.26515625 6.1875 2.5 C5.29417969 2.5928125 4.40085938 2.685625 3.48046875 2.78125 C1 3 1 3 -2 3 C-1.34 2.01 -0.68 1.02 0 0 Z " fill="#E5A277" transform="translate(149,8)"/>
<path d="M0 0 C0 1.32 0 2.64 0 4 C-2.08201528 4.50546036 -4.16567067 5.00416835 -6.25 5.5 C-7.41015625 5.7784375 -8.5703125 6.056875 -9.765625 6.34375 C-13 7 -13 7 -17 7 C-17 6.34 -17 5.68 -17 5 C-20.63 5.33 -24.26 5.66 -28 6 C-27.67 5.34 -27.34 4.68 -27 4 C-25.06566673 3.76654598 -23.13041357 3.53843515 -21.19140625 3.34765625 C-17.87990607 2.82230239 -15.03897993 1.37614185 -12 0 C-7.76685033 -1.2699449 -4.32703149 -0.76359379 0 0 Z " fill="#E0EAC1" transform="translate(221,63)"/>
<path d="M0 0 C2.31 0.66 4.62 1.32 7 2 C7.33 3.32 7.66 4.64 8 6 C8.66 6 9.32 6 10 6 C10.33 5.01 10.66 4.02 11 3 C10.67 5.64 10.34 8.28 10 11 C9.34 11 8.68 11 8 11 C8 10.01 8 9.02 8 8 C5.69 8.33 3.38 8.66 1 9 C0.67 9.99 0.34 10.98 0 12 C-1.9375 11.3125 -1.9375 11.3125 -4 10 C-5.0625 7.6875 -5.0625 7.6875 -5 5 C-2.5625 2.1875 -2.5625 2.1875 0 0 Z " fill="#C82085" transform="translate(114,18)"/>
<path d="M0 0 C2.31 0.33 4.62 0.66 7 1 C8.125 7.75 8.125 7.75 7 10 C5.35 10 3.7 10 2 10 C2 11.32 2 12.64 2 14 C0.68 13.67 -0.64 13.34 -2 13 C-1.67 11.68 -1.34 10.36 -1 9 C-2.32 9 -3.64 9 -5 9 C-5 8.34 -5 7.68 -5 7 C-3.68 7 -2.36 7 -1 7 C-1 6.01 -1 5.02 -1 4 C-1.99 4 -2.98 4 -4 4 C-4 3.34 -4 2.68 -4 2 C-2.68 2 -1.36 2 0 2 C0 1.34 0 0.68 0 0 Z " fill="#929292" transform="translate(193,104)"/>
<path d="M0 0 C2.3203125 0.16015625 2.3203125 0.16015625 5 1 C6.6171875 3.43359375 6.6171875 3.43359375 7.875 6.4375 C8.30554688 7.42621094 8.73609375 8.41492188 9.1796875 9.43359375 C10 12 10 12 9 14 C7.0625 13.625 7.0625 13.625 5 13 C4.67 12.34 4.34 11.68 4 11 C1.9375 10.375 1.9375 10.375 0 10 C-0.33 11.32 -0.66 12.64 -1 14 C-2.32 14 -3.64 14 -5 14 C-3.46527032 9.27775484 -1.76054874 4.64144669 0 0 Z M2 6 C1.67 6.66 1.34 7.32 1 8 C1.66 8 2.32 8 3 8 C2.67 7.34 2.34 6.68 2 6 Z " fill="#848484" transform="translate(83,81)"/>
<path d="M0 0 C-1.32 0.99 -2.64 1.98 -4 3 C-3.360625 2.9175 -3.360625 2.9175 -0.125 2.5 C8.67195978 1.562393 15.72184905 1.65940759 24 5 C25.010625 5.391875 26.02125 5.78375 27.0625 6.1875 C27.3821875 6.3215625 27.3821875 6.3215625 29 7 C29 7.33 29 7.66 29 8 C27.02 8 25.04 8 23 8 C22.835 7.67 22.835 7.67 22 6 C13.2023988 3.26970997 6.48417557 3.92520368 -2.328125 6.44140625 C-5 7 -5 7 -8 6 C-7.34 6 -6.68 6 -6 6 C-6 5.34 -6 4.68 -6 4 C-6.33966797 4.08056641 -6.33966797 4.08056641 -8.05859375 4.48828125 C-11.43465117 5.0756166 -14.63618539 5.16917746 -18.0625 5.1875 C-18.66642578 5.19458984 -18.66642578 5.19458984 -21.72265625 5.23046875 C-24.78742498 5.01494866 -26.43995415 4.61519102 -29 3 C-26.12894601 1.564473 -24.14075224 2.4616914 -21 3 C-18.70916711 3.06522873 -16.41664206 3.0858841 -14.125 3.0625 C-12.97257812 3.05347656 -11.82015625 3.04445312 -10.6328125 3.03515625 C-10.19839844 3.02935547 -10.19839844 3.02935547 -8 3 C-8 2.34 -8 1.68 -8 1 C-5.07175348 0.02391783 -3.04386724 -0.08226668 0 0 Z " fill="#EBF3CC" transform="translate(155,56)"/>
<path d="M0 0 C1.75 1.4375 1.75 1.4375 3 3 C3.99 3.33 4.98 3.66 6 4 C8.21751399 7.69585666 9 9.63008373 9 14 C12.3 14 15.6 14 19 14 C19.33 13.01 19.66 12.02 20 11 C19.67 12.65 19.34 14.3 19 16 C15.04 16 11.08 16 7 16 C7 14.35 7 12.7 7 11 C6.34 11 5.68 11 5 11 C4.67 9.02 4.34 7.04 4 5 C1.7089095 4.80558632 -0.58290337 4.61966865 -2.875 4.4375 C-4.15117188 4.33308594 -5.42734375 4.22867187 -6.7421875 4.12109375 C-10 4 -10 4 -12 5 C-11.67 3.68 -11.34 2.36 -11 1 C-7.30516081 -0.18234854 -3.85646386 -0.2804701 0 0 Z " fill="#CB82AB" transform="translate(122,8)"/>
<path d="M0 0 C3.96 0 7.92 0 12 0 C12.33 1.65 12.66 3.3 13 5 C12.67 5.165 12.67 5.165 11 6 C11 5.01 11 4.02 11 3 C9.68 3 8.36 3 7 3 C7.33 6.3 7.66 9.6 8 13 C7.01 13 6.02 13 5 13 C5 11.35 5 9.7 5 8 C4.01 8 3.02 8 2 8 C2.33 9.65 2.66 11.3 3 13 C2.01 13 1.02 13 0 13 C0 8.71 0 4.42 0 0 Z M3 4 C4 6 4 6 4 6 Z " fill="#7C7C7C" transform="translate(71,103)"/>
<path d="M0 0 C-0.66 1.32 -1.32 2.64 -2 4 C-3.98 4 -5.96 4 -8 4 C-8.28875 4.598125 -8.5775 5.19625 -8.875 5.8125 C-10 8 -10 8 -12 11 C-12.38499891 12.65549531 -12.72793135 14.3222433 -13 16 C-13.33 16 -13.66 16 -14 16 C-14 13.69 -14 11.38 -14 9 C-15.32 9 -16.64 9 -18 9 C-17.67 7.35 -17.34 5.7 -17 4 C-16.34 4 -15.68 4 -15 4 C-15 3.34 -15 2.68 -15 2 C-10.13948404 -0.59227518 -5.34728867 -0.18689553 0 0 Z " fill="#D84A53" transform="translate(160,10)"/>
<path d="M0 0 C-1.20556604 0.63032133 -2.41463189 1.2539497 -3.625 1.875 C-3.96144531 2.04902344 -3.96144531 2.04902344 -5.6640625 2.9296875 C-10.92465632 5.34005992 -15.26146836 6.25693563 -21.0625 6.1875 C-22.24972656 6.18105469 -23.43695313 6.17460938 -24.66015625 6.16796875 C-27.56119407 6.0220686 -30.18008735 5.66633097 -33 5 C-33.33 4.01 -33.66 3.02 -34 2 C-33.43079834 2.01047363 -32.86159668 2.02094727 -32.27514648 2.03173828 C-29.6626437 2.07365718 -27.05021201 2.09943888 -24.4375 2.125 C-23.98987305 2.13337891 -23.98987305 2.13337891 -21.72460938 2.17578125 C-16.38544008 2.21489604 -12.04896612 1.74898826 -7 0 C-3.81451839 -0.9733416 -3.31089789 -1.10363263 0 0 Z " fill="#A4BF51" transform="translate(102,58)"/>
<path d="M0 0 C4.29 0 8.58 0 13 0 C13 1.32 13 2.64 13 4 C11.35 4 9.7 4 8 4 C8.33 6.97 8.66 9.94 9 13 C7.35 13.33 5.7 13.66 4 14 C4 10.7 4 7.4 4 4 C2.68 4 1.36 4 0 4 C0 2.68 0 1.36 0 0 Z " fill="#959595" transform="translate(249,81)"/>
<path d="M0 0 C1.43791516 0.14168137 2.8753237 0.28851043 4.3125 0.4375 C5.11300781 0.51871094 5.91351563 0.59992188 6.73828125 0.68359375 C9 1 9 1 12 2 C14.73289293 2.22797562 17.45042204 2.41668187 20.1875 2.5625 C20.93708984 2.60568359 21.68667969 2.64886719 22.45898438 2.69335938 C24.30578375 2.79922685 26.15286834 2.9000976 28 3 C27.67 3.165 27.67 3.165 26 4 C26 4.66 26 5.32 26 6 C16.52395508 6.42324766 8.60159081 6.63162582 0 2 C0 1.34 0 0.68 0 0 Z " fill="#A8C161" transform="translate(118,66)"/>
<path d="M0 0 C0.66 1.32 1.32 2.64 2 4 C1.38125 4.391875 0.7625 4.78375 0.125 5.1875 C-2 7 -2 7 -2.8203125 9.3125 C-4.3016983 12.68731269 -6.23871565 14.3923627 -9 16.8125 C-9.4434375 17.20759766 -9.4434375 17.20759766 -11.6875 19.20703125 C-14 21 -14 21 -16 21 C-15.57843307 16.08171916 -13.52992419 14.29459591 -10 11 C-8.41571631 9.14001988 -6.86765402 7.25575128 -5.33203125 5.35546875 C-4.89246094 4.90816406 -4.45289063 4.46085937 -4 4 C-3.34 4 -2.68 4 -2 4 C-1.34 2.68 -0.68 1.36 0 0 Z " fill="#FA752A" transform="translate(146,26)"/>
<path d="M0 0 C1.65 0.33 3.3 0.66 5 1 C4.67 3.97 4.34 6.94 4 10 C6.64 10 9.28 10 12 10 C12 11.32 12 12.64 12 14 C8.04 14 4.08 14 0 14 C-0.91297308 9.02936879 -0.91297308 4.97063121 0 0 Z " fill="#8E8E8F" transform="translate(111,81)"/>
<path d="M0 0 C0.33 -0.0928125 0.33 -0.0928125 2 -0.5625 C4.62473206 -1.13666014 5.75722562 -0.36168444 8 1 C8 1.99 8 2.98 8 4 C7.67 4.165 7.67 4.165 6 5 C5.67 5.99 5.34 6.98 5 8 C4.67 7.01 4.34 6.02 4 5 C0.7 5 -2.6 5 -6 5 C-6.66 3.68 -7.32 2.36 -8 1 C-4.81734989 -0.93232328 -3.51216452 -0.98779627 0 0 Z " fill="#959595" transform="translate(127,103)"/>
<path d="M0 0 C2.02408755 0.09002398 4.04544287 0.24641038 6.0625 0.4375 C6.61486328 0.48841797 6.61486328 0.48841797 9.41015625 0.74609375 C10.26480469 0.82988281 11.11945312 0.91367187 12 1 C12.33 1.99 12.66 2.98 13 4 C13.66 4 14.32 4 15 4 C15 4.66 15 5.32 15 6 C15.99 6.33 16.98 6.66 18 7 C17.13375 6.835 16.2675 6.67 15.375 6.5 C9.30238178 5.60733769 3.12033868 5.92360188 -3 6 C-1.125 1.125 -1.125 1.125 0 0 Z " fill="#A7BB57" transform="translate(52,62)"/>
<path d="M0 0 C0.33 0 0.66 0 1 0 C1.042721 1.66611905 1.04063832 3.33382885 1 5 C0 6 0 6 -3.125 6.125 C-8.25281485 7.28289368 -10.83079346 9.89972713 -14 14 C-14.33 14.99 -14.66 15.98 -15 17 C-15.99 17.66 -16.98 18.32 -18 19 C-18.495 19.845625 -18.99 20.69125 -19.5 21.5625 C-21 24 -21 24 -24 25 C-25.1875 27.5625 -25.1875 27.5625 -26 30 C-26.33 29.01 -26.66 28.02 -27 27 C-25.9519043 25.28588867 -25.9519043 25.28588867 -24.32421875 23.41796875 C-23.74349609 22.73283203 -23.16277344 22.04769531 -22.56445312 21.34179688 C-21.94505859 20.63087891 -21.32566406 19.91996094 -20.6875 19.1875 C-13.34155694 10.73538099 -13.34155694 10.73538099 -12 5 C-8.37 4.67 -4.74 4.34 -1 4 C-0.67 2.68 -0.34 1.36 0 0 Z " fill="#E21943" transform="translate(142,19)"/>
<path d="M0 0 C0.66 0 1.32 0 2 0 C2.33 0.66 2.66 1.32 3 2 C4.32 1.67 5.64 1.34 7 1 C6.34 0.67 5.68 0.34 5 0 C6.32 0.33 7.64 0.66 9 1 C8.67 1.99 8.34 2.98 8 4 C8.66 4 9.32 4 10 4 C10 4.66 10 5.32 10 6 C9.34 6 8.68 6 8 6 C8.20625 6.78375 8.4125 7.5675 8.625 8.375 C8.74875 9.24125 8.8725 10.1075 9 11 C8.34 11.66 7.68 12.32 7 13 C7 10.69 7 8.38 7 6 C6.34 6 5.68 6 5 6 C4.67 7.32 4.34 8.64 4 10 C4 9.34 4 8.68 4 8 C3.01 8.33 2.02 8.66 1 9 C0.34 8.67 -0.32 8.34 -1 8 C-1.625 4.9375 -1.625 4.9375 -2 2 C-1.34 2 -0.68 2 0 2 C0 1.34 0 0.68 0 0 Z " fill="#595959" transform="translate(171,104)"/>
<path d="M0 0 C0.99 0 1.98 0 3 0 C2.979375 0.94875 2.95875 1.8975 2.9375 2.875 C3 6 3 6 4 8 C3.66015625 10.1640625 3.66015625 10.1640625 3.0625 12.625 C2.86785156 13.44226563 2.67320313 14.25953125 2.47265625 15.1015625 C2.39466797 15.41480469 2.39466797 15.41480469 2 17 C1.01 17 0.02 17 -1 17 C-1 14.69 -1 12.38 -1 10 C-1.66 10 -2.32 10 -3 10 C-3.36265043 5.76907828 -2.60250805 3.37362154 0 0 Z " fill="#8B8B8B" transform="translate(106,102)"/>
<path d="M0 0 C0.99 0 1.98 0 3 0 C3 0.99 3 1.98 3 3 C3.78375 2.505 4.5675 2.01 5.375 1.5 C8 0 8 0 10 0 C10 0.66 10 1.32 10 2 C9.01 2.66 8.02 3.32 7 4 C7.33 4.66 7.66 5.32 8 6 C7.34 6 6.68 6 6 6 C6 6.66 6 7.32 6 8 C6.66 8 7.32 8 8 8 C8 8.66 8 9.32 8 10 C7.34 10 6.68 10 6 10 C6 10.66 6 11.32 6 12 C6.66 12.33 7.32 12.66 8 13 C6.0625 12.625 6.0625 12.625 4 12 C3.67 11.34 3.34 10.68 3 10 C3.33 9.34 3.66 8.68 4 8 C3.01 7.67 2.02 7.34 1 7 C0.67 6.34 0.34 5.68 0 5 C-0.33 6.65 -0.66 8.3 -1 10 C-1.33 10 -1.66 10 -2 10 C-2 7.69 -2 5.38 -2 3 C-1.34 3 -0.68 3 0 3 C0 2.01 0 1.02 0 0 Z " fill="#A2A2A2" transform="translate(55,102)"/>
<path d="M0 0 C1.98 0 3.96 0 6 0 C5.67 1.32 5.34 2.64 5 4 C3.68 4 2.36 4 1 4 C0.01 4.33 -0.98 4.66 -2 5 C-2 6.98 -2 8.96 -2 11 C-1.01 11 -0.02 11 1 11 C1 12.32 1 13.64 1 15 C1.66 15.33 2.32 15.66 3 16 C2.01 16 1.02 16 0 16 C-0.33 15.34 -0.66 14.68 -1 14 C-1.66 14.33 -1.66 14.33 -5 16 C-5.625 13.6875 -5.625 13.6875 -6 11 C-5.34 10.01 -4.68 9.02 -4 8 C-4.66 7.67 -5.32 7.34 -6 7 C-5.67 5.68 -5.34 4.36 -5 3 C-3.68 3 -2.36 3 -1 3 C-0.67 2.01 -0.34 1.02 0 0 Z " fill="#969696" transform="translate(142,102)"/>
<path d="M0 0 C2.125 1.75 2.125 1.75 4 4 C4 5.32 4 6.64 4 8 C-1.28 7.67 -6.56 7.34 -12 7 C-10.68 5.68 -9.36 4.36 -8 3 C-6.68 3 -5.36 3 -4 3 C-4 2.34 -4 1.68 -4 1 C-2 0 -2 0 0 0 Z " fill="#FBEC17" transform="translate(172,42)"/>
<path d="M0 0 C0.99 0 1.98 0 3 0 C3.89063845 2.91481676 4.25805827 4.4193689 3 7.25 C0.11070311 9.77813478 -2.22036401 9.86738119 -6 10 C-8.4375 9.0625 -8.4375 9.0625 -10 8 C-9.67 6.68 -9.34 5.36 -9 4 C-8.34 4.33 -7.68 4.66 -7 5 C-5.00039988 5.039992 -2.99952758 5.04346799 -1 5 C-0.67 3.35 -0.34 1.7 0 0 Z " fill="#8D8D8D" transform="translate(188,85)"/>
<path d="M0 0 C0 0.66 0 1.32 0 2 C-7.94795054 4.89016383 -17.14358599 5.49173956 -25 2 C-25 1.67 -25 1.34 -25 1 C-21.77093849 0.83125405 -18.54173589 0.66537263 -15.3125 0.5 C-14.40048828 0.45230469 -13.48847656 0.40460937 -12.54882812 0.35546875 C-11.66259766 0.31035156 -10.77636719 0.26523437 -9.86328125 0.21875 C-9.05157471 0.17685547 -8.23986816 0.13496094 -7.40356445 0.09179688 C-4.93328996 -0.00254779 -2.47182511 -0.01538879 0 0 Z " fill="#9DBD50" transform="translate(149,60)"/>
<path d="M0 0 C3.3 0 6.6 0 10 0 C10 0.33 10 0.66 10 1 C7.36 1 4.72 1 2 1 C2.185625 1.5775 2.37125 2.155 2.5625 2.75 C3.04023546 5.20692525 2.75729364 6.64397534 2 9 C2.66 8.67 3.32 8.34 4 8 C6.3329866 7.95977609 8.66706666 7.95679753 11 8 C11 9.32 11 10.64 11 12 C7.03611362 12.07622858 3.8726592 11.9681648 0 11 C0 7.37 0 3.74 0 0 Z " fill="#5D5D5D" transform="translate(126,83)"/>
<path d="M0 0 C0.33 0.99 0.66 1.98 1 3 C0.67 3.495 0.67 3.495 -1 6 C-1.66 6 -2.32 6 -3 6 C-3.226875 6.53625 -3.45375 7.0725 -3.6875 7.625 C-6.5680342 12.83739521 -11.62755212 19.31377606 -17 22 C-16.35595192 18.3645181 -14.81350931 15.8494474 -12.75 12.8125 C-12.16734375 11.93207031 -11.5846875 11.05164062 -10.984375 10.14453125 C-8.674468 7.64819475 -7.33126085 7.29292121 -4 7 C-3.896875 6.401875 -3.79375 5.80375 -3.6875 5.1875 C-2.91123545 2.71756736 -1.92911079 1.67748765 0 0 Z " fill="#DE2813" transform="translate(145,24)"/>
<path d="M0 0 C0.78375 0.04125 1.5675 0.0825 2.375 0.125 C3.21598656 4.14304691 3.42904945 7.14303543 2.375 11.125 C1.385 10.795 0.395 10.465 -0.625 10.125 C0.035 10.125 0.695 10.125 1.375 10.125 C1.375 9.465 1.375 8.805 1.375 8.125 C0.055 8.125 -1.265 8.125 -2.625 8.125 C-2.625 7.465 -2.625 6.805 -2.625 6.125 C-3.285 6.125 -3.945 6.125 -4.625 6.125 C-4.625 1.71963177 -4.59063093 0.21860147 0 0 Z M-4.625 8.125 C-3.965 8.125 -3.305 8.125 -2.625 8.125 C-2.625 8.785 -2.625 9.445 -2.625 10.125 C-3.285 10.125 -3.945 10.125 -4.625 10.125 C-4.625 9.465 -4.625 8.805 -4.625 8.125 Z " fill="#8A8A8A" transform="translate(65.625,103.875)"/>
<path d="M0 0 C0.33 0.66 0.66 1.32 1 2 C-0.07507629 3.29854721 -1.16043736 4.58858361 -2.25 5.875 C-2.85328125 6.59429687 -3.4565625 7.31359375 -4.078125 8.0546875 C-5.99846403 9.9984453 -7.57353301 10.82590307 -10 12 C-11.484375 13.5078125 -11.484375 13.5078125 -12.75 15.125 C-13.4925 16.07375 -14.235 17.0225 -15 18 C-15.99 17.67 -16.98 17.34 -18 17 C-16.71937515 15.2925002 -15.38232443 13.62626404 -14 12 C-13.34 12 -12.68 12 -12 12 C-12 11.34 -12 10.68 -12 10 C-10.390625 8.37890625 -10.390625 8.37890625 -8.25 6.5625 C-7.55390625 5.96566406 -6.8578125 5.36882813 -6.140625 4.75390625 C-4.13326411 3.10918902 -2.08929688 1.53873892 0 0 Z " fill="#FDB914" transform="translate(161,33)"/>
<path d="M0 0 C0.33 0 0.66 0 1 0 C0.09048724 6.75638051 0.09048724 6.75638051 -0.8125 9.1875 C-0.874375 9.785625 -0.93625 10.38375 -1 11 C0.9375 13.25 0.9375 13.25 3 15 C2.67 15.66 2.34 16.32 2 17 C1.34 16.34 0.68 15.68 0 15 C-0.33 15.66 -0.66 16.32 -1 17 C-2.32 16.67 -3.64 16.34 -5 16 C-5 15.01 -5 14.02 -5 13 C-4.34 13 -3.68 13 -3 13 C-3.66 10.36 -4.32 7.72 -5 5 C-4.360625 4.731875 -3.72125 4.46375 -3.0625 4.1875 C-1 3 -1 3 0 0 Z " fill="#F6C838" transform="translate(169,25)"/>
<path d="M0 0 C9.41002278 0.96355353 9.41002278 0.96355353 14 2 C15.53166168 6.08443115 14.63081652 9.79455657 14 14 C12.85855076 11.7986336 11.85017977 9.62104295 10.9375 7.3125 C10 5 10 5 9 4 C7.48071962 3.92820036 5.95832518 3.91607993 4.4375 3.9375 C4.02435547 3.94201172 4.02435547 3.94201172 1.93359375 3.96484375 C1.61455078 3.97064453 1.61455078 3.97064453 0 4 C0 2.68 0 1.36 0 0 Z " fill="#D01681" transform="translate(112,11)"/>
<path d="M0 0 C0.33 0.66 0.66 1.32 1 2 C2.84765625 2.4140625 2.84765625 2.4140625 5.0625 2.625 C6.361875 2.74875 7.66125 2.8725 9 3 C9.33 3.99 9.66 4.98 10 6 C3.25 7.125 3.25 7.125 1 6 C1.2475 6.474375 1.2475 6.474375 2.5 8.875 C4 12 4 12 4 14 C2.35 13.67 0.7 13.34 -1 13 C-1.02686553 11.02090602 -1.04633375 9.04171029 -1.0625 7.0625 C-1.07410156 5.96035156 -1.08570313 4.85820313 -1.09765625 3.72265625 C-1 1 -1 1 0 0 Z M3 4 C3.33 4.66 3.66 5.32 4 6 C5.65 5.67 7.3 5.34 9 5 C9 4.67 9 4.34 9 4 C7.02 4 5.04 4 3 4 Z " fill="#989898" transform="translate(63,81)"/>
<path d="M0 0 C-1.32 0.33 -2.64 0.66 -4 1 C-4 1.66 -4 2.32 -4 3 C-9.28 3 -14.56 3 -20 3 C-20.33 2.01 -20.66 1.02 -21 0 C-18.06281233 -0.19461488 -15.12550068 -0.38097593 -12.1875 -0.5625 C-11.35412109 -0.61857422 -10.52074219 -0.67464844 -9.66210938 -0.73242188 C-8.85966797 -0.78076172 -8.05722656 -0.82910156 -7.23046875 -0.87890625 C-6.49207764 -0.9260376 -5.75368652 -0.97316895 -4.99291992 -1.02172852 C-3 -1 -3 -1 0 0 Z " fill="#A7C056" transform="translate(92,69)"/>
<path d="M0 0 C-3.13498292 1.85776765 -5.37471432 2.20140476 -9 2 C-9.33 2.66 -9.66 3.32 -10 4 C-18.00639976 7.52619718 -24.64258328 8.79209407 -33 6 C-33 5.67 -33 5.34 -33 5 C-32.00097656 4.93941406 -31.00195312 4.87882812 -29.97265625 4.81640625 C-28.68230469 4.73261719 -27.39195312 4.64882813 -26.0625 4.5625 C-24.77472656 4.48128906 -23.48695313 4.40007813 -22.16015625 4.31640625 C-19 4 -19 4 -18 3 C-16.33382885 2.95936168 -14.66611905 2.957279 -13 3 C-13 2.34 -13 1.68 -13 1 C-8.62426048 0.40667939 -4.42471556 -0.13827236 0 0 Z " fill="#D6E5B2" transform="translate(217,59)"/>
<path d="M0 0 C-1 1 -1 1 -4.0625 1.0625 C-5.031875 1.041875 -6.00125 1.02125 -7 1 C-7 1.66 -7 2.32 -7 3 C-12.87883349 5.61281488 -18.70731728 5.18328202 -25 5 C-25 4.34 -25 3.68 -25 3 C-24.62488281 2.93941406 -24.62488281 2.93941406 -22.7265625 2.6328125 C-16.79583761 1.66178701 -10.91847713 0.60700874 -5.05859375 -0.73046875 C-3 -1 -3 -1 0 0 Z " fill="#A5BF51" transform="translate(211,59)"/>
<path d="M0 0 C4.63714903 1.46436285 4.63714903 1.46436285 6.3125 3.9375 C7 6 7 6 7 9 C7.99 9.33 8.98 9.66 10 10 C9.835 10.78375 9.67 11.5675 9.5 12.375 C9 15 9 15 9 17 C8.34 17 7.68 17 7 17 C5.57142857 25.57142857 5.57142857 25.57142857 8 29 C6.35 27.68 4.7 26.36 3 25 C3.60000091 22.49999621 4.29585809 20.1288623 5.125 17.6875 C6.08107459 13.65832852 5.8354747 11.02546901 5 7 C4.896875 6.236875 4.79375 5.47375 4.6875 4.6875 C4 3 4 3 1.9375 1.75 C1.298125 1.5025 0.65875 1.255 0 1 C0 0.67 0 0.34 0 0 Z " fill="#FBEFCC" transform="translate(164,11)"/>
<path d="M0 0 C0.50466797 0.00580078 0.50466797 0.00580078 3.05859375 0.03515625 C4.07050781 0.04417969 5.08242187 0.05320312 6.125 0.0625 C6.51623047 0.06830078 6.51623047 0.06830078 8.49609375 0.09765625 C8.49609375 0.75765625 8.49609375 1.41765625 8.49609375 2.09765625 C7.83609375 2.75765625 7.17609375 3.41765625 6.49609375 4.09765625 C6.49609375 4.75765625 6.49609375 5.41765625 6.49609375 6.09765625 C4.18609375 6.09765625 1.87609375 6.09765625 -0.50390625 6.09765625 C-0.83390625 8.07765625 -1.16390625 10.05765625 -1.50390625 12.09765625 C-0.84390625 12.42765625 -0.18390625 12.75765625 0.49609375 13.09765625 C-0.82390625 13.42765625 -2.14390625 13.75765625 -3.50390625 14.09765625 C-3.53076563 11.95188988 -3.55023713 9.8060298 -3.56640625 7.66015625 C-3.57800781 6.46519531 -3.58960937 5.27023438 -3.6015625 4.0390625 C-3.47195922 0.13541183 -3.47195922 0.13541183 0 0 Z " fill="#9C9A9D" transform="translate(98.50390625,80.90234375)"/>
<path d="M0 0 C2.00720923 0.28674418 4.0085944 0.61866701 6 1 C6.33 3.31 6.66 5.62 7 8 C4 9 4 9 1.3125 7.875 C-1 6 -1 6 -1.375 3.375 C-1 1 -1 1 0 0 Z " fill="#808080" transform="translate(160,110)"/>
<path d="M0 0 C0.99 0 1.98 0 3 0 C3 0.66 3 1.32 3 2 C2.34 2 1.68 2 1 2 C1 2.66 1 3.32 1 4 C-0.32 4 -1.64 4 -3 4 C-3 4.66 -3 5.32 -3 6 C-2.01 6 -1.02 6 0 6 C0 6.99 0 7.98 0 9 C-1.32 9 -2.64 9 -4 9 C-4 9.66 -4 10.32 -4 11 C-2.68 11 -1.36 11 0 11 C-0.33 11.66 -0.66 12.32 -1 13 C-3.31 12.34 -5.62 11.68 -8 11 C-7.67 10.01 -7.34 9.02 -7 8 C-6.731875 7.13375 -6.46375 6.2675 -6.1875 5.375 C-5 3 -5 3 -2.9375 2.3125 C-2.298125 2.209375 -1.65875 2.10625 -1 2 C-0.67 1.34 -0.34 0.68 0 0 Z " fill="#A9A9A9" transform="translate(192,102)"/>
<path d="M0 0 C1 2 1 2 1 5 C1.556875 4.9896875 1.556875 4.9896875 4.375 4.9375 C8 5 8 5 10 6 C10 6.66 10 7.32 10 8 C7.20046988 9.90368048 5.84226401 9.99184124 2.375 9.8125 C-1 9 -1 9 -3 6 C-2.34 6 -1.68 6 -1 6 C-1.0103125 5.5978125 -1.0103125 5.5978125 -1.0625 3.5625 C-1 1 -1 1 0 0 Z " fill="#838383" transform="translate(49,85)"/>
<path d="M0 0 C0.35384766 -0.00805664 0.35384766 -0.00805664 2.14453125 -0.04882812 C6.64702277 -0.05302039 9.54398294 0.53896718 13.125 3.3125 C13.125 3.6425 13.125 3.9725 13.125 4.3125 C12.56554687 4.25191406 12.00609375 4.19132812 11.4296875 4.12890625 C4.00602665 3.35312176 -3.42848409 2.81680295 -10.875 2.3125 C-7.17289441 -0.1555704 -4.28387746 -0.01929675 0 0 Z " fill="#A1BB4F" transform="translate(165.875,63.6875)"/>
<path d="M0 0 C-1.32 0.99 -2.64 1.98 -4 3 C-3.67 3.66 -3.34 4.32 -3 5 C-3.66 5 -4.32 5 -5 5 C-5 5.66 -5 6.32 -5 7 C-5.99 6.67 -6.98 6.34 -8 6 C-7.34 6 -6.68 6 -6 6 C-6 5.34 -6 4.68 -6 4 C-6.33966797 4.08056641 -6.33966797 4.08056641 -8.05859375 4.48828125 C-11.43465117 5.0756166 -14.63618539 5.16917746 -18.0625 5.1875 C-18.66642578 5.19458984 -18.66642578 5.19458984 -21.72265625 5.23046875 C-24.78742498 5.01494866 -26.43995415 4.61519102 -29 3 C-26.12894601 1.564473 -24.14075224 2.4616914 -21 3 C-18.70916711 3.06522873 -16.41664206 3.0858841 -14.125 3.0625 C-12.97257812 3.05347656 -11.82015625 3.04445312 -10.6328125 3.03515625 C-10.19839844 3.02935547 -10.19839844 3.02935547 -8 3 C-8 2.34 -8 1.68 -8 1 C-5.07175348 0.02391783 -3.04386724 -0.08226668 0 0 Z " fill="#E1EFC2" transform="translate(155,56)"/>
<path d="M0 0 C0.74958984 0.00451172 1.49917969 0.00902344 2.27148438 0.01367188 C4.11852383 0.02543646 5.96552213 0.04337135 7.8125 0.0625 C8.1425 0.7225 8.4725 1.3825 8.8125 2.0625 C6.08373692 2.39945862 3.35456837 2.73218429 0.625 3.0625 C0.24053711 3.11019531 0.24053711 3.11019531 -1.70507812 3.3515625 C-5.55678811 3.81442894 -9.29920851 4.18717468 -13.1875 4.0625 C-9.82055044 -0.98792434 -5.55379517 -0.06305619 0 0 Z " fill="#A0C24F" transform="translate(163.1875,55.9375)"/>
<path d="M0 0 C0.99 0 1.98 0 3 0 C3.33 1.32 3.66 2.64 4 4 C4.86625 3.773125 5.7325 3.54625 6.625 3.3125 C10.68338409 2.9367237 12.55166676 3.94742069 16 6 C13 7 13 7 10 6 C8.29983156 5.91821886 6.59663703 5.89250499 4.89453125 5.90234375 C4.40307617 5.90395508 4.40307617 5.90395508 1.91601562 5.91210938 C1.40393555 5.91629883 1.40393555 5.91629883 -1.1875 5.9375 C-2.22326172 5.94201172 -3.25902344 5.94652344 -4.32617188 5.95117188 C-6.88417266 5.9629599 -9.44205733 5.97941485 -12 6 C-11.67 5.34 -11.34 4.68 -11 4 C-8.49609375 3.3671875 -8.49609375 3.3671875 -5.4375 2.875 C-4.93154297 2.79121094 -4.93154297 2.79121094 -2.37109375 2.3671875 C-1.58863281 2.24601562 -0.80617188 2.12484375 0 2 C0 1.34 0 0.68 0 0 Z " fill="#E7EECB" transform="translate(108,51)"/>
<path d="M0 0 C2 2 2 2 2.875 4.9375 C4.09098878 8.24769167 5.03639805 9.22183883 8 11 C6.68 11 5.36 11 4 11 C4 11.66 4 12.32 4 13 C3.01 13 2.02 13 1 13 C-0.52448631 10.0173094 -1.93940067 7.181798 -3 4 C-1.5625 1.8125 -1.5625 1.8125 0 0 Z " fill="#B42482" transform="translate(105,21)"/>
<path d="M0 0 C0.33 0.66 0.66 1.32 1 2 C2.98 1.67 4.96 1.34 7 1 C7.33 2.32 7.66 3.64 8 5 C7.01 4.835 7.01 4.835 2 4 C2 4.99 2 5.98 2 7 C-0.64 7.33 -3.28 7.66 -6 8 C-5.625 5.0625 -5.625 5.0625 -5 2 C-4.34 1.67 -3.68 1.34 -3 1 C-3.33 2.32 -3.66 3.64 -4 5 C-3.34 5.33 -2.68 5.66 -2 6 C-1.34 4.02 -0.68 2.04 0 0 Z " fill="#F3D2BB" transform="translate(153,17)"/>
<path d="M0 0 C0.99 0 1.98 0 3 0 C2.34 1.98 1.68 3.96 1 6 C2.32 5.67 3.64 5.34 5 5 C5.33 3.68 5.66 2.36 6 1 C6.66 1.33 7.32 1.66 8 2 C8 5.3 8 8.6 8 12 C7.01 12 6.02 12 5 12 C5 10.35 5 8.7 5 7 C4.01 7 3.02 7 2 7 C2.33 8.65 2.66 10.3 3 12 C2.01 12 1.02 12 0 12 C0 8.04 0 4.08 0 0 Z " fill="#595959" transform="translate(71,104)"/>
<path d="M0 0 C1.65 0.33 3.3 0.66 5 1 C4.67 1.66 4.34 2.32 4 3 C3.01 3.33 2.02 3.66 1 4 C1.020625 5.134375 1.04125 6.26875 1.0625 7.4375 C1 11 1 11 0 12 C-1.66617115 12.04063832 -3.33388095 12.042721 -5 12 C-4.35550393 8.98782888 -3.34977818 6.48344164 -1.9375 3.75 C-1.57527344 3.04359375 -1.21304687 2.3371875 -0.83984375 1.609375 C-0.56269531 1.07828125 -0.28554687 0.5471875 0 0 Z " fill="#939393" transform="translate(14,83)"/>
<path d="M0 0 C3 3.625 3 3.625 3 7 C3.33 7.66 3.66 8.32 4 9 C2.68 9 1.36 9 0 9 C-0.33 10.65 -0.66 12.3 -1 14 C-2.32 14 -3.64 14 -5 14 C-3.46527032 9.27775484 -1.76054874 4.64144669 0 0 Z " fill="#979797" transform="translate(83,81)"/>
<path d="M0 0 C2.31 0.66 4.62 1.32 7 2 C7.33 3.32 7.66 4.64 8 6 C8.66 6 9.32 6 10 6 C10.33 5.01 10.66 4.02 11 3 C11 4.32 11 5.64 11 7 C7 7 7 7 5.4375 5.5625 C4.963125 5.046875 4.48875 4.53125 4 4 C3.01 3.67 2.02 3.34 1 3 C1 3.99 1 4.98 1 6 C0.01 6 -0.98 6 -2 6 C-2.66 7.32 -3.32 8.64 -4 10 C-4.8125 7.8125 -4.8125 7.8125 -5 5 C-2.5625 2.1875 -2.5625 2.1875 0 0 Z " fill="#E3A1CE" transform="translate(114,18)"/>
<path d="M0 0 C0.33 0.99 0.66 1.98 1 3 C2.65 2.34 4.3 1.68 6 1 C6.33 1.99 6.66 2.98 7 4 C6.67 4.495 6.67 4.495 5 7 C1.375 7.1875 1.375 7.1875 -2 7 C-2.33 5.02 -2.66 3.04 -3 1 C-2.01 0.67 -1.02 0.34 0 0 Z " fill="#8E8E8E" transform="translate(112,111)"/>
<path d="M0 0 C2.31 0 4.62 0 7 0 C8.13357275 3.32514673 9.1469752 6.5879008 10 10 C7.03 10 4.06 10 1 10 C1.33 9.34 1.66 8.68 2 8 C2.66 8 3.32 8 4 8 C3.67 6.68 3.34 5.36 3 4 C3.66 4 4.32 4 5 4 C5 3.01 5 2.02 5 1 C4.01 1 3.02 1 2 1 C1.67 1.66 1.34 2.32 1 3 C0.67 2.01 0.34 1.02 0 0 Z " fill="#9B9B9B" transform="translate(219,79)"/>
<path d="M0 0 C0 0.33 0 0.66 0 1 C-2.56213554 1.64730804 -5.12468485 2.29289288 -7.6875 2.9375 C-8.40873047 3.11990234 -9.12996094 3.30230469 -9.87304688 3.49023438 C-13.56827248 4.41825907 -17.25345469 5.29798461 -21 6 C-18.375 2.125 -18.375 2.125 -15 1 C-14.319375 0.62875 -13.63875 0.2575 -12.9375 -0.125 C-8.54752068 -1.43265341 -4.48106724 -0.64388151 0 0 Z " fill="#FAC919" transform="translate(160,48)"/>
<path d="M0 0 C0.66 0 1.32 0 2 0 C2 0.66 2 1.32 2 2 C2.66 2 3.32 2 4 2 C4 2.66 4 3.32 4 4 C3.01 4 2.02 4 1 4 C1 6.97 1 9.94 1 13 C0.34 12.67 -0.32 12.34 -1 12 C-1 11.01 -1 10.02 -1 9 C-2.32 9 -3.64 9 -5 9 C-5 8.34 -5 7.68 -5 7 C-3.68 7 -2.36 7 -1 7 C-1 6.01 -1 5.02 -1 4 C-1.99 4 -2.98 4 -4 4 C-4 3.34 -4 2.68 -4 2 C-2.68 2 -1.36 2 0 2 C0 1.34 0 0.68 0 0 Z " fill="#5C5C5C" transform="translate(193,104)"/>
<path d="M0 0 C1.9375 0.75 1.9375 0.75 4 2 C4.75 4.125 4.75 4.125 5 6 C4.01 6.66 3.02 7.32 2 8 C2.33 8.495 2.33 8.495 4 11 C2.68 10.67 1.36 10.34 0 10 C0 8.02 0 6.04 0 4 C-0.99 4.33 -1.98 4.66 -3 5 C-3.66 4.34 -4.32 3.68 -5 3 C-4.01 2.34 -3.02 1.68 -2 1 C-1.67 1.33 -1.34 1.66 -1 2 C-0.67 1.34 -0.34 0.68 0 0 Z " fill="#818181" transform="translate(147,103)"/>
<path d="M0 0 C0.99 0 1.98 0 3 0 C3 4.29 3 8.58 3 13 C2.01 13 1.02 13 0 13 C-0.144375 11.88625 -0.28875 10.7725 -0.4375 9.625 C-1 6 -1 6 -2 4 C-1.0625 1.875 -1.0625 1.875 0 0 Z " fill="#7E7E7E" transform="translate(154,105)"/>
<path d="M0 0 C0.66 0 1.32 0 2 0 C2 4.29 2 8.58 2 13 C1.67 13 1.34 13 1 13 C0.67 8.71 0.34 4.42 0 0 Z M-5 3 C-3.68 3 -2.36 3 -1 3 C-0.67 4.32 -0.34 5.64 0 7 C-0.66 7 -1.32 7 -2 7 C-1.67 8.65 -1.34 10.3 -1 12 C-2.32 12 -3.64 12 -5 12 C-5 9.03 -5 6.06 -5 3 Z M-4 9 C-4 9.66 -4 10.32 -4 11 C-3.34 11 -2.68 11 -2 11 C-2 10.34 -2 9.68 -2 9 C-2.66 9 -3.32 9 -4 9 Z " fill="#A2A2A2" transform="translate(83,103)"/>
<path d="M0 0 C0.28875 0.1134375 0.28875 0.1134375 1.75 0.6875 C1.75 1.0175 1.75 1.3475 1.75 1.6875 C5.38 2.0175 9.01 2.3475 12.75 2.6875 C12.42 3.3475 12.09 4.0075 11.75 4.6875 C9.6877952 4.741848 7.62517184 4.78044961 5.5625 4.8125 C4.41394531 4.83570313 3.26539063 4.85890625 2.08203125 4.8828125 C-1.16740372 4.69234152 -3.33660521 4.08110127 -6.25 2.6875 C-2.80384615 -0.38942308 -2.80384615 -0.38942308 0 0 Z " fill="#DD903C" transform="translate(126.25,50.3125)"/>
<path d="M0 0 C1.66611905 -0.042721 3.33382885 -0.04063832 5 0 C6 1 6 1 6.1875 3.9375 C6 7 6 7 4 9 C4 7.02 4 5.04 4 3 C3.38511719 3.2165625 2.77023438 3.433125 2.13671875 3.65625 C1.32847656 3.9346875 0.52023438 4.213125 -0.3125 4.5 C-0.71275391 4.63921875 -0.71275391 4.63921875 -2.73828125 5.34375 C-5 6 -5 6 -8 6 C-8 5.34 -8 4.68 -8 4 C-5.36 3.67 -2.72 3.34 0 3 C0 2.01 0 1.02 0 0 Z " fill="#E18A47" transform="translate(155,21)"/>
<path d="M0 0 C5.94 0.33 11.88 0.66 18 1 C18 1.33 18 1.66 18 2 C16.35 2.33 14.7 2.66 13 3 C13 3.33 13 3.66 13 4 C8.83861737 4.08159574 5.0527516 3.98248524 1 3 C0.67 2.01 0.34 1.02 0 0 Z " fill="#A9C264" transform="translate(68,60)"/>
<path d="M0 0 C0.33 0.66 0.66 1.32 1 2 C1.67804688 1.855625 2.35609375 1.71125 3.0546875 1.5625 C19.43630477 -1.70474777 19.43630477 -1.70474777 24.28515625 1.51953125 C24.85105469 2.00808594 25.41695312 2.49664062 26 3 C23.66705225 3.04241723 21.33297433 3.04092937 19 3 C18.67 2.67 18.34 2.34 18 2 C16.30914009 2.06537595 14.62092493 2.20364726 12.9375 2.375 C12.44378906 2.42462891 12.44378906 2.42462891 9.9453125 2.67578125 C6.29070935 3.07807841 2.64502691 3.51858135 -1 4 C-0.67 2.68 -0.34 1.36 0 0 Z " fill="#E686AA" transform="translate(94,49)"/>
<path d="M0 0 C3.24198486 3.06674243 6.19934278 5.8690805 8 10 C7.1875 12.3125 7.1875 12.3125 6 14 C3.6568787 13.74438677 1.32156597 13.40729228 -1 13 C-1.33 12.34 -1.66 11.68 -2 11 C0.64 11.33 3.28 11.66 6 12 C6 11.01 6 10.02 6 9 C5.34 9 4.68 9 4 9 C4 8.01 4 7.02 4 6 C2.68 5.34 1.36 4.68 0 4 C0 2.68 0 1.36 0 0 Z " fill="#FBF9C2" transform="translate(172,40)"/>
<path d="M0 0 C0.40412109 0.00451172 0.40412109 0.00451172 2.44921875 0.02734375 C2.75666016 0.03314453 2.75666016 0.03314453 4.3125 0.0625 C4.3125 0.7225 4.3125 1.3825 4.3125 2.0625 C-0.91262279 3.52920113 -5.2689234 4.28827402 -10.6875 4.0625 C-7.4284026 0.49301238 -4.73606476 -0.06863862 0 0 Z " fill="#A9C158" transform="translate(215.6875,63.9375)"/>
<path d="M0 0 C2.00235341 0.03783517 4.003511 0.15475853 6 0.3125 C6.5465625 0.35181641 6.5465625 0.35181641 9.3125 0.55078125 C9.7559375 0.62490234 9.7559375 0.62490234 12 1 C12.33 1.66 12.66 2.32 13 3 C8.71 2.67 4.42 2.34 0 2 C0 2.66 0 3.32 0 4 C1.98 4 3.96 4 6 4 C2.86501708 5.85776765 0.62528568 6.20140476 -3 6 C-1.125 1.125 -1.125 1.125 0 0 Z " fill="#E4EAC3" transform="translate(52,62)"/>
<path d="M0 0 C0.33 0.66 0.66 1.32 1 2 C1.66 2 2.32 2 3 2 C3.33 4.97 3.66 7.94 4 11 C2.02 11 0.04 11 -2 11 C-1.34 7.37 -0.68 3.74 0 0 Z " fill="#EB0689" transform="translate(126,17)"/>
<path d="M0 0 C3.36720387 1.39332574 4.9859524 2.9789286 7 6 C6.34 6 5.68 6 5 6 C4.67 6.99 4.34 7.98 4 9 C4 8.01 4 7.02 4 6 C2.68 6.99 1.36 7.98 0 9 C0 7.68 0 6.36 0 5 C-0.66 4.67 -1.32 4.34 -2 4 C-1.34 2.68 -0.68 1.36 0 0 Z " fill="#A4A4A4" transform="translate(209,102)"/>
<path d="M0 0 C2.8203125 -0.29296875 2.8203125 -0.29296875 6.125 -0.1875 C6.67285156 -0.17396484 6.67285156 -0.17396484 9.4453125 -0.10546875 C10.28835937 -0.07066406 11.13140625 -0.03585938 12 0 C12.33 1.65 12.66 3.3 13 5 C12.34 5 11.68 5 11 5 C10.34 4.01 9.68 3.02 9 2 C7 3 7 3 6 5 C4.68 4.67 3.36 4.34 2 4 C2 3.34 2 2.68 2 2 C1.34 2 0.68 2 0 2 C0 2.66 0 3.32 0 4 C-0.66 3.67 -1.32 3.34 -2 3 C-1.34 2.01 -0.68 1.02 0 0 Z " fill="#A7A7A7" transform="translate(171,102)"/>
<path d="M0 0 C0.33 0.66 0.66 1.32 1 2 C1.66 2.33 2.32 2.66 3 3 C2.67 3.66 2.34 4.32 2 5 C2.9375 7.625 2.9375 7.625 4 10 C2.35 9.67 0.7 9.34 -1 9 C-1.66 6.69 -2.32 4.38 -3 2 C-2.01 1.34 -1.02 0.68 0 0 Z " fill="#8A8A8A" transform="translate(171,85)"/>
<path d="M0 0 C0.99 0.33 1.98 0.66 3 1 C3 2.32 3 3.64 3 5 C2.01 5.33 1.02 5.66 0 6 C-1.37195574 7.29355827 -2.71182656 8.62298702 -4 10 C-4.99 9.34 -5.98 8.68 -7 8 C-6.34 7.01 -5.68 6.02 -5 5 C-4.01 5.33 -3.02 5.66 -2 6 C-2 4.68 -2 3.36 -2 2 C-1.34 1.34 -0.68 0.68 0 0 Z " fill="#D2409F" transform="translate(111,28)"/>
<path d="M0 0 C2.97 0.33 5.94 0.66 9 1 C8.67 2.32 8.34 3.64 8 5 C5.03 4.67 2.06 4.34 -1 4 C-0.67 2.68 -0.34 1.36 0 0 Z " fill="#9A9A9A" transform="translate(198,81)"/>
<path d="M0 0 C0.825 0.165 0.825 0.165 5 1 C5 1.66 5 2.32 5 3 C8.96 3.33 12.92 3.66 17 4 C17 4.33 17 4.66 17 5 C14.36 5 11.72 5 9 5 C9 5.66 9 6.32 9 7 C6.69 6.34 4.38 5.68 2 5 C2 4.01 2 3.02 2 2 C1.34 1.34 0.68 0.68 0 0 Z " fill="#BACB7E" transform="translate(177,57)"/>
<path d="M0 0 C0.33 0.66 0.66 1.32 1 2 C2.65 2 4.3 2 6 2 C6 3.65 6 5.3 6 7 C4.02 7.66 2.04 8.32 0 9 C0 6 0 3 0 0 Z " fill="#9A9A9A" transform="translate(169,110)"/>
<path d="M0 0 C0.99 0 1.98 0 3 0 C3 0.66 3 1.32 3 2 C3.99 2 4.98 2 6 2 C6 3.65 6 5.3 6 7 C4.35 7 2.7 7 1 7 C0.67 6.01 0.34 5.02 0 4 C-0.66 3.67 -1.32 3.34 -2 3 C-1.34 3 -0.68 3 0 3 C0 2.01 0 1.02 0 0 Z " fill="#757575" transform="translate(161,102)"/>
<path d="M0 0 C1.98 0 3.96 0 6 0 C5.67 1.32 5.34 2.64 5 4 C3.68 4 2.36 4 1 4 C0.01 4.33 -0.98 4.66 -2 5 C-2 5.66 -2 6.32 -2 7 C-3.32 7 -4.64 7 -6 7 C-5.67 5.68 -5.34 4.36 -5 3 C-3.68 3 -2.36 3 -1 3 C-0.67 2.01 -0.34 1.02 0 0 Z " fill="#9C9C9C" transform="translate(142,102)"/>
<path d="M0 0 C0.825 0.33 0.825 0.33 5 2 C4.67 2.165 4.67 2.165 3 3 C3.33 3.99 3.66 4.98 4 6 C3.54152804 9.57608127 2.65689836 11.68620328 1 15 C1 11.04 1 7.08 1 3 C0.34 3 -0.32 3 -1 3 C-0.67 2.01 -0.34 1.02 0 0 Z " fill="#B3B3B3" transform="translate(156,102)"/>
<path d="M0 0 C5 6.59090909 5 6.59090909 5 10 C3.02 10 1.04 10 -1 10 C-0.814375 9.05125 -0.62875 8.1025 -0.4375 7.125 C0 4 0 4 -1 2 C-0.67 1.34 -0.34 0.68 0 0 Z " fill="#A2A2A2" transform="translate(22,85)"/>
<path d="M0 0 C0.66 0.33 1.32 0.66 2 1 C2.09765625 7.15234375 2.09765625 7.15234375 2 9 C1 10 1 10 -1.5625 10.0625 C-2.366875 10.041875 -3.17125 10.02125 -4 10 C-4 9.34 -4 8.68 -4 8 C-3.01 8 -2.02 8 -1 8 C-1.020625 7.05125 -1.04125 6.1025 -1.0625 5.125 C-1 2 -1 2 0 0 Z " fill="#787878" transform="translate(40,84)"/>
<path d="M0 0 C0.66 0.33 1.32 0.66 2 1 C1.67 3.97 1.34 6.94 1 10 C-0.32 9.34 -1.64 8.68 -3 8 C-3.36923077 3.44615385 -3.36923077 3.44615385 -1.5 1.1875 C-1.005 0.795625 -0.51 0.40375 0 0 Z " fill="#898989" transform="translate(196,82)"/>
<path d="M0 0 C1.98 0 3.96 0 6 0 C6.33 1.98 6.66 3.96 7 6 C4.69 5.67 2.38 5.34 0 5 C0 3.35 0 1.7 0 0 Z " fill="#888888" transform="translate(15,79)"/>
<path d="M0 0 C0.33 0 0.66 0 1 0 C1.103125 1.2375 1.20625 2.475 1.3125 3.75 C1.65157111 6.67834142 1.81266245 7.76409345 3.6875 10.125 C4.120625 10.74375 4.55375 11.3625 5 12 C4.1875 15.25 4.1875 15.25 3 18 C2.938125 17.7009375 2.938125 17.7009375 2.625 16.1875 C2 14 2 14 0 11 C-0.78648334 7.0675833 -1.37913361 3.83092668 0 0 Z " fill="#BE90BC" transform="translate(101,19)"/>
<path d="M0 0 C2.03144641 0.93446535 4.03533587 1.93224776 6 3 C6 3.99 6 4.98 6 6 C3.69 5.67 1.38 5.34 -1 5 C-1.33 3.68 -1.66 2.36 -2 1 C-1.34 0.67 -0.68 0.34 0 0 Z " fill="#888888" transform="translate(96,112)"/>
<path d="M0 0 C0 1.32 0 2.64 0 4 C-1.32 4 -2.64 4 -4 4 C-4 3.34 -4 2.68 -4 2 C-5.98 2 -7.96 2 -10 2 C-10 1.34 -10 0.68 -10 0 C-6.7169902 -1.6415049 -3.57454967 -0.51888624 0 0 Z " fill="#6C6C6C" transform="translate(131,108)"/>
<path d="M0 0 C0.66 0.33 1.32 0.66 2 1 C2 2.32 2 3.64 2 5 C-0.31 5.33 -2.62 5.66 -5 6 C-4.75 4.125 -4.75 4.125 -4 2 C-2.0625 0.6875 -2.0625 0.6875 0 0 Z " fill="#8B8B8B" transform="translate(91,112)"/>
<path d="M0 0 C0.99 0.33 1.98 0.66 3 1 C1.71034824 2.37562854 0.37310707 3.70766393 -1 5 C-1.66 5 -2.32 5 -3 5 C-3.33 5.99 -3.66 6.98 -4 8 C-4.66 8 -5.32 8 -6 8 C-6 8.66 -6 9.32 -6 10 C-8.5 11.625 -8.5 11.625 -11 13 C-9.56177525 9.58139248 -7.78464276 7.72092162 -4.9375 5.375 C-1.09722222 2.19444444 -1.09722222 2.19444444 0 0 Z " fill="#EA890A" transform="translate(155,35)"/>
<path d="M0 0 C2.64 0 5.28 0 8 0 C7.67 0.495 7.67 0.495 6 3 C3.1796875 3.51171875 3.1796875 3.51171875 -0.125 3.6875 C-0.67285156 3.72037109 -0.67285156 3.72037109 -3.4453125 3.88671875 C-4.28835937 3.92410156 -5.13140625 3.96148437 -6 4 C-3 2 -3 2 0 2 C0 1.34 0 0.68 0 0 Z " fill="#E32020" transform="translate(152,11)"/>
<path d="M0 0 C0 0.66 0 1.32 0 2 C-6.4489191 3.31909709 -12.48755792 2.69508823 -19 2 C-19 1.67 -19 1.34 -19 1 C-16.77100213 0.83109082 -14.54179338 0.66496313 -12.3125 0.5 C-11.69181641 0.45359375 -11.69181641 0.45359375 -8.55078125 0.21875 C-5.68500671 0.04220063 -2.86900043 -0.04388528 0 0 Z " fill="#A8C361" transform="translate(149,60)"/>
<path d="M0 0 C0 3.9919694 -1.11957103 6.49851158 -3 10 C-5.6875 10.9375 -5.6875 10.9375 -8 11 C-7.01 9.02 -6.02 7.04 -5 5 C-4.34 5 -3.68 5 -3 5 C-2.690625 4.360625 -2.38125 3.72125 -2.0625 3.0625 C-1 1 -1 1 0 0 Z " fill="#D799C6" transform="translate(102,37)"/>
<path d="M0 0 C6.52307692 -0.36923077 6.52307692 -0.36923077 8.9375 1.5 C9.288125 1.995 9.63875 2.49 10 3 C9.67 3.99 9.34 4.98 9 6 C8.278125 5.525625 7.55625 5.05125 6.8125 4.5625 C4.10524774 3.05847097 2.03805725 2.43400818 -1 2 C-0.67 1.34 -0.34 0.68 0 0 Z " fill="#D384B8" transform="translate(114,14)"/>
<path d="M0 0 C0.33 1.32 0.66 2.64 1 4 C4.96 4.33 8.92 4.66 13 5 C13.33 4.34 13.66 3.68 14 3 C14 3.99 14 4.98 14 6 C9.05 6 4.1 6 -1 6 C-1 2 -1 2 0 0 Z " fill="#AAAAAA" transform="translate(55,112)"/>
<path d="M0 0 C0.66 0 1.32 0 2 0 C2.33 0.66 2.66 1.32 3 2 C3.99 2 4.98 2 6 2 C6 2.66 6 3.32 6 4 C5.34 4 4.68 4 4 4 C4 4.66 4 5.32 4 6 C2.35 6 0.7 6 -1 6 C-1.33 4.68 -1.66 3.36 -2 2 C-1.34 2 -0.68 2 0 2 C0 1.34 0 0.68 0 0 Z " fill="#6F6F6F" transform="translate(171,104)"/>
<path d="M0 0 C0.556875 0.020625 0.556875 0.020625 3.375 0.125 C3.375 1.445 3.375 2.765 3.375 4.125 C0 4.25 0 4.25 -3.625 4.125 C-4.285 3.465 -4.945 2.805 -5.625 2.125 C-3.625 0.125 -3.625 0.125 0 0 Z " fill="#9A9A9A" transform="translate(133.625,90.875)"/>
<path d="M0 0 C0.99 0.33 1.98 0.66 3 1 C5.33299825 1.03954234 7.66708189 1.04401732 10 1 C10 1.33 10 1.66 10 2 C9.05125 2.103125 8.1025 2.20625 7.125 2.3125 C4 3 4 3 2 6 C0.68 5.67 -0.64 5.34 -2 5 C-1.34 3.35 -0.68 1.7 0 0 Z " fill="#A8A8A8" transform="translate(216,89)"/>
<path d="M0 0 C0.66 0.33 1.32 0.66 2 1 C2 3.97 2 6.94 2 10 C1.01 9.67 0.02 9.34 -1 9 C-3.33299825 8.96045766 -5.66708189 8.95598268 -8 9 C-8 8.67 -8 8.34 -8 8 C-6.02 8 -4.04 8 -2 8 C-2 7.34 -2 6.68 -2 6 C-1.34 6 -0.68 6 0 6 C-0.185625 5.38125 -0.37125 4.7625 -0.5625 4.125 C-1 2 -1 2 0 0 Z " fill="#ABA9AC" transform="translate(107,83)"/>
<path d="M0 0 C1.98 0 3.96 0 6 0 C6 1.98 6 3.96 6 6 C3.36 6.33 0.72 6.66 -2 7 C-2 6.01 -2 5.02 -2 4 C-0.02 4 1.96 4 4 4 C4 3.01 4 2.02 4 1 C2.68 0.67 1.36 0.34 0 0 Z " fill="#706E71" transform="translate(101,83)"/>
<path d="M0 0 C2.64 0.33 5.28 0.66 8 1 C8 1.66 8 2.32 8 3 C9.32 3.33 10.64 3.66 12 4 C3.42857143 4.14285714 3.42857143 4.14285714 0 3 C0 2.01 0 1.02 0 0 Z " fill="#ABC763" transform="translate(118,57)"/>
<path d="M0 0 C1.32 0 2.64 0 4 0 C3.67 2.31 3.34 4.62 3 7 C1.68 7.33 0.36 7.66 -1 8 C-0.67 5.36 -0.34 2.72 0 0 Z " fill="#FDECD2" transform="translate(161,22)"/>
<path d="M0 0 C0.75 1.625 0.75 1.625 1 4 C-0.875 7.25 -0.875 7.25 -3 10 C-3.33 10 -3.66 10 -4 10 C-4.25 6.6875 -4.25 6.6875 -4 3 C-2 1.0625 -2 1.0625 0 0 Z " fill="#2E76B1" transform="translate(106,15)"/>
<path d="M0 0 C0.33 0.66 0.66 1.32 1 2 C2.98 2 4.96 2 7 2 C7 2.66 7 3.32 7 4 C7.66 4 8.32 4 9 4 C9 4.66 9 5.32 9 6 C7.515 6.165 7.515 6.165 0 7 C0.99 6.01 1.98 5.02 3 4 C2.01 3.67 1.02 3.34 0 3 C0 2.01 0 1.02 0 0 Z " fill="#A4A4A4" transform="translate(120,108)"/>
<path d="M0 0 C2.62187494 1.04874998 3.79371361 1.64931313 5.25 4.125 C5.4975 4.74375 5.745 5.3625 6 6 C5.01 5.34 4.02 4.68 3 4 C2.67 4.66 2.34 5.32 2 6 C0.68 5.67 -0.64 5.34 -2 5 C-2 4.01 -2 3.02 -2 2 C-1.34 2 -0.68 2 0 2 C0 1.34 0 0.68 0 0 Z " fill="#F3D130" transform="translate(166,36)"/>
<path d="M0 0 C0.99 0.33 1.98 0.66 3 1 C2.34 1 1.68 1 1 1 C1 1.99 1 2.98 1 4 C0.01 4 -0.98 4 -2 4 C-1.67 4.99 -1.34 5.98 -1 7 C-1.66 7.66 -2.32 8.32 -3 9 C-3 8.01 -3 7.02 -3 6 C-3.99 6 -4.98 6 -6 6 C-6 5.01 -6 4.02 -6 3 C-2.25 1.875 -2.25 1.875 0 3 C0 2.01 0 1.02 0 0 Z " fill="#9D9D9D" transform="translate(92,102)"/>
<path d="M0 0 C-0.66 2.64 -1.32 5.28 -2 8 C-2.99 8 -3.98 8 -5 8 C-5.1875 5.125 -5.1875 5.125 -5 2 C-2 0 -2 0 0 0 Z " fill="#7C7C7C" transform="translate(50,83)"/>
<path d="M0 0 C5.05255964 0.63156995 9.29593201 2.13459373 14 4 C14 4.33 14 4.66 14 5 C7.25 5.125 7.25 5.125 5 4 C5 3.34 5 2.68 5 2 C3.35 1.67 1.7 1.34 0 1 C0 0.67 0 0.34 0 0 Z " fill="#F2FBDB" transform="translate(114,67)"/>
<path d="M0 0 C5.94 0 11.88 0 18 0 C18 0.99 18 1.98 18 3 C12.06 2.34 6.12 1.68 0 1 C0 0.67 0 0.34 0 0 Z " fill="#F1F078" transform="translate(160,49)"/>
<path d="M0 0 C0.33 0.99 0.66 1.98 1 3 C-2.83314543 8.63697858 -2.83314543 8.63697858 -6.8125 9.875 C-7.1734375 9.895625 -7.1734375 9.895625 -9 10 C-8.06409496 8.8944811 -7.12620142 7.79064547 -6.1875 6.6875 C-5.66542969 6.07261719 -5.14335937 5.45773438 -4.60546875 4.82421875 C-3.12827531 3.14575321 -1.59960869 1.56117966 0 0 Z " fill="#FA642D" transform="translate(139,34)"/>
<path d="M0 0 C0.66 0 1.32 0 2 0 C4.02350324 3.03525486 4.32124018 4.19426202 4.625 7.6875 C4.69976562 8.49574219 4.77453125 9.30398437 4.8515625 10.13671875 C4.87605469 10.44416016 4.87605469 10.44416016 5 12 C4.34 12 3.68 12 3 12 C3 10.35 3 8.7 3 7 C2.34 7 1.68 7 1 7 C0.67 4.69 0.34 2.38 0 0 Z " fill="#DA6CB1" transform="translate(126,12)"/>
<path d="M0 0 C0.99 0.33 1.98 0.66 3 1 C2.34 1 1.68 1 1 1 C1 2.32 1 3.64 1 5 C-2.21428571 8 -2.21428571 8 -5 8 C-4.6875 6.0625 -4.6875 6.0625 -4 4 C-3.01 3.67 -2.02 3.34 -1 3 C-0.67 2.01 -0.34 1.02 0 0 Z " fill="#8DB8D2" transform="translate(107,10)"/>
<path d="M0 0 C1.32 0.66 2.64 1.32 4 2 C3.67 2.99 3.34 3.98 3 5 C2.34 5 1.68 5 1 5 C0.67 6.32 0.34 7.64 0 9 C-0.99 8.67 -1.98 8.34 -3 8 C-2.34 8 -1.68 8 -1 8 C-1.0103125 7.6184375 -1.0103125 7.6184375 -1.0625 5.6875 C-1 3 -1 3 0 0 Z " fill="#A3A3A3" transform="translate(165,86)"/>
<path d="M0 0 C5.28 0 10.56 0 16 0 C9.47941517 3.26029242 6.87041128 2.94661653 0 1 C0 0.67 0 0.34 0 0 Z " fill="#F2F5D7" transform="translate(184,64)"/>
<path d="M0 0 C0.33 0.99 0.66 1.98 1 3 C-0.125 4.5625 -0.125 4.5625 -2 6 C-5.125 5.8125 -5.125 5.8125 -8 5 C-8.33 4.34 -8.66 3.68 -9 3 C-6.36 3 -3.72 3 -1 3 C-0.67 2.01 -0.34 1.02 0 0 Z " fill="#D62727" transform="translate(125,46)"/>
<path d="M0 0 C3 1 3 1 4 3 C4.039992 4.99960012 4.04346799 7.00047242 4 9 C3.67 9.165 3.67 9.165 2 10 C0.68373308 6.38026598 0 3.90432869 0 0 Z " fill="#ED7D2E" transform="translate(164,15)"/>
<path d="M0 0 C0.99 0 1.98 0 3 0 C2.67 2.31 2.34 4.62 2 7 C1.01 7 0.02 7 -1 7 C-0.67 4.69 -0.34 2.38 0 0 Z " fill="#868686" transform="translate(203,108)"/>
<path d="M0 0 C1 2 1 2 1 5 C2.98 5 4.96 5 7 5 C6.67 5.66 6.34 6.32 6 7 C3.2303041 7.72886734 0.87137415 8 -2 8 C-2.33 7.34 -2.66 6.68 -3 6 C-2.34 6 -1.68 6 -1 6 C-1.0103125 5.5978125 -1.0103125 5.5978125 -1.0625 3.5625 C-1 1 -1 1 0 0 Z " fill="#AEAEAE" transform="translate(49,85)"/>
<path d="M0 0 C1.65 0.33 3.3 0.66 5 1 C4.67 2.32 4.34 3.64 4 5 C2.35 5 0.7 5 -1 5 C-0.67 3.35 -0.34 1.7 0 0 Z " fill="#C6C7C6" transform="translate(186,48)"/>
<path d="M0 0 C1.9453125 -0.29296875 1.9453125 -0.29296875 4.125 -0.1875 C5.40375 -0.125625 6.6825 -0.06375 8 0 C8.33 0.99 8.66 1.98 9 3 C5.33333333 3 1.66666667 3 -2 3 C-1.34 2.01 -0.68 1.02 0 0 Z " fill="#E99C8D" transform="translate(152,14)"/>
<path d="M0 0 C1.32 0 2.64 0 4 0 C4.33 1.65 4.66 3.3 5 5 C3.02 5 1.04 5 -1 5 C-0.67 3.35 -0.34 1.7 0 0 Z " fill="#616161" transform="translate(63,112)"/>
<path d="M0 0 C0.33 1.32 0.66 2.64 1 4 C-1.31 4 -3.62 4 -6 4 C-6 3.01 -6 2.02 -6 1 C-4.02 0.67 -2.04 0.34 0 0 Z " fill="#919191" transform="translate(155,84)"/>
<path d="M0 0 C-0.33 0.165 -0.33 0.165 -2 1 C-2 1.66 -2 2.32 -2 3 C-1.01 3.33 -0.02 3.66 1 4 C-5.75 3.25 -5.75 3.25 -8 1 C-4.93251126 -0.86240388 -3.40254489 -1.2151946 0 0 Z " fill="#ED9B70" transform="translate(128,51)"/>
<path d="M0 0 C0.99 0 1.98 0 3 0 C3 1.32 3 2.64 3 4 C4.32 3.67 5.64 3.34 7 3 C7 4.32 7 5.64 7 7 C6.34 7.66 5.68 8.32 5 9 C5 7.68 5 6.36 5 5 C4.01 5 3.02 5 2 5 C2 3.68 2 2.36 2 1 C1.34 0.67 0.68 0.34 0 0 Z " fill="#AAAAAA" transform="translate(110,102)"/>
<path d="M0 0 C0.66 0 1.32 0 2 0 C5 4.38461538 5 4.38461538 5 7 C3.35 6.67 1.7 6.34 0 6 C0 4.02 0 2.04 0 0 Z " fill="#A0A0A0" transform="translate(62,88)"/>
<path d="M0 0 C2.64 0.99 5.28 1.98 8 3 C6 5 6 5 3.375 5.125 C2.59125 5.08375 1.8075 5.0425 1 5 C0.67 3.35 0.34 1.7 0 0 Z " fill="#757575" transform="translate(178,89)"/>
<path d="M0 0 C1.98 0 3.96 0 6 0 C5.67 0.99 5.34 1.98 5 3 C3.35 3 1.7 3 0 3 C-0.33 3.66 -0.66 4.32 -1 5 C-0.67 3.35 -0.34 1.7 0 0 Z " fill="#9B9B9B" transform="translate(129,87)"/>
<path d="M0 0 C0 0.33 0 0.66 0 1 C-2.64 1 -5.28 1 -8 1 C-8 1.66 -8 2.32 -8 3 C-9.98 3.33 -11.96 3.66 -14 4 C-10.36515075 -1.28705346 -5.79646176 -0.3982302 0 0 Z " fill="#CA3537" transform="translate(160,10)"/>
<path d="M0 0 C0 0.99 0 1.98 0 3 C-0.66 3 -1.32 3 -2 3 C-2 3.66 -2 4.32 -2 5 C-2.99 5 -3.98 5 -5 5 C-5 6.65 -5 8.3 -5 10 C-5.33 10 -5.66 10 -6 10 C-6.125 4.25 -6.125 4.25 -5 2 C-3.35636866 1.27840576 -1.68949614 0.60648579 0 0 Z " fill="#9F9F9F" transform="translate(243,85)"/>
<path d="M0 0 C0.66 0 1.32 0 2 0 C3.10844919 3.32534757 2.84454356 5.62182575 2 9 C1.34 9 0.68 9 0 9 C0 6.03 0 3.06 0 0 Z " fill="#5E5E5E" transform="translate(235,85)"/>
<path d="M0 0 C0.99 0.165 0.99 0.165 6 1 C6 1.66 6 2.32 6 3 C6.99 3.66 7.98 4.32 9 5 C7.02 5 5.04 5 3 5 C3 4.34 3 3.68 3 3 C2.34 2.67 1.68 2.34 1 2 C0.67 1.34 0.34 0.68 0 0 Z " fill="#B3C874" transform="translate(176,66)"/>
<path d="M0 0 C0.33 0.66 0.66 1.32 1 2 C1.680625 1.835 2.36125 1.67 3.0625 1.5 C6.4164822 0.92910941 9.60389805 0.93340977 13 1 C13 1.33 13 1.66 13 2 C8.38 2.66 3.76 3.32 -1 4 C-0.67 2.68 -0.34 1.36 0 0 Z " fill="#DFB9D6" transform="translate(94,49)"/>
<path d="M0 0 C0 0.99 0 1.98 0 3 C-0.309375 3.1134375 -0.309375 3.1134375 -1.875 3.6875 C-4.61410209 5.37929835 -5.05024472 6.99244161 -6 10 C-6.33 9.01 -6.66 8.02 -7 7 C-2.88888889 1.44444444 -2.88888889 1.44444444 0 0 Z " fill="#EC1041" transform="translate(122,39)"/>
<path d="M0 0 C2.375 -0.1875 2.375 -0.1875 5 0 C5.66 0.99 6.32 1.98 7 3 C4.69 3.33 2.38 3.66 0 4 C0 2.68 0 1.36 0 0 Z " fill="#B31D85" transform="translate(112,11)"/>
<path d="M0 0 C0.99 0.66 1.98 1.32 3 2 C2.67 2.66 2.34 3.32 2 4 C3.65 4 5.3 4 7 4 C7 4.33 7 4.66 7 5 C4.25 5.25 4.25 5.25 1 5 C-1.375 3 -1.375 3 -3 1 C-2.01 0.67 -1.02 0.34 0 0 Z " fill="#A3A3A3" transform="translate(197,90)"/>
<path d="M0 0 C-0.99 0.66 -1.98 1.32 -3 2 C-1.68 2.66 -0.36 3.32 1 4 C-1.49092811 5.24546405 -2.41080733 4.7767578 -5 4 C-5 3.34 -5 2.68 -5 2 C-5.99 2.33 -6.98 2.66 -8 3 C-8 2.34 -8 1.68 -8 1 C-5.07175348 0.02391783 -3.04386724 -0.08226668 0 0 Z " fill="#C3C3C3" transform="translate(55,81)"/>
<path d="M0 0 C0.99 0.165 0.99 0.165 6 1 C3.14521674 2.90318884 1.58058692 3.4619099 -1.6875 4.125 C-2.49574219 4.29257813 -3.30398437 4.46015625 -4.13671875 4.6328125 C-4.75160156 4.75398438 -5.36648437 4.87515625 -6 5 C-4 3 -4 3 -1 2 C-0.67 1.34 -0.34 0.68 0 0 Z " fill="#D9E8B4" transform="translate(97,66)"/>
<path d="M0 0 C3.375 -0.1875 3.375 -0.1875 7 0 C7.66 0.99 8.32 1.98 9 3 C5.7 2.67 2.4 2.34 -1 2 C-0.67 1.34 -0.34 0.68 0 0 Z " fill="#A9C05E" transform="translate(170,65)"/>
<path d="M0 0 C0.33 0.66 0.66 1.32 1 2 C3.97 2 6.94 2 10 2 C10 2.33 10 2.66 10 3 C6.37 3.33 2.74 3.66 -1 4 C-0.67 2.68 -0.34 1.36 0 0 Z " fill="#AF3D80" transform="translate(96,47)"/>
<path d="M0 0 C2.64 0 5.28 0 8 0 C8 1.32 8 2.64 8 4 C6.68 4 5.36 4 4 4 C4 3.01 4 2.02 4 1 C2.68 0.67 1.36 0.34 0 0 Z " fill="#B3B3B3" transform="translate(115,91)"/>
<path d="M0 0 C1.32 0.33 2.64 0.66 4 1 C4 1.66 4 2.32 4 3 C3.34 3 2.68 3 2 3 C2 4.65 2 6.3 2 8 C1.71125 7.38125 1.4225 6.7625 1.125 6.125 C0 4 0 4 -2 2 C-1.34 2 -0.68 2 0 2 C0 1.34 0 0.68 0 0 Z " fill="#A6A6A6" transform="translate(186,82)"/>
<path d="M0 0 C0.33 0.99 0.66 1.98 1 3 C2.98 3 4.96 3 7 3 C3.86501708 4.85776765 1.62528568 5.20140476 -2 5 C-1.34 3.35 -0.68 1.7 0 0 Z " fill="#ECF1D5" transform="translate(51,63)"/>
<path d="M0 0 C1.65 0 3.3 0 5 0 C5 0.99 5 1.98 5 3 C3.35 3.33 1.7 3.66 0 4 C0 2.68 0 1.36 0 0 Z " fill="#E51E20" transform="translate(136,28)"/>
<path d="M0 0 C0.66 0.66 1.32 1.32 2 2 C1.625 4.125 1.625 4.125 1 6 C0.34 6 -0.32 6 -1 6 C-1.33 6.165 -1.33 6.165 -3 7 C-2.38722388 4.03824877 -1.74627478 2.61941217 0 0 Z " fill="#813D97" transform="translate(105,21)"/>
<path d="M0 0 C0.99 0 1.98 0 3 0 C2.67 1.65 2.34 3.3 2 5 C0.68 4.67 -0.64 4.34 -2 4 C-1.34 2.68 -0.68 1.36 0 0 Z " fill="#818181" transform="translate(132,112)"/>
<path d="M0 0 C0.99 0.33 1.98 0.66 3 1 C2.67 2.32 2.34 3.64 2 5 C0.35 5 -1.3 5 -3 5 C-2.67 4.34 -2.34 3.68 -2 3 C-1.34 3 -0.68 3 0 3 C0 2.01 0 1.02 0 0 Z " fill="#858585" transform="translate(116,112)"/>
<path d="M0 0 C0.66 0 1.32 0 2 0 C2 2.31 2 4.62 2 7 C1.01 7 0.02 7 -1 7 C-0.67 4.69 -0.34 2.38 0 0 Z " fill="#6E6E6E" transform="translate(176,110)"/>
<path d="M0 0 C0.99 0 1.98 0 3 0 C3.33 1.65 3.66 3.3 4 5 C2.68 4.67 1.36 4.34 0 4 C0 2.68 0 1.36 0 0 Z " fill="#7F7F7F" transform="translate(214,108)"/>
<path d="M0 0 C2.64 0.33 5.28 0.66 8 1 C8 1.33 8 1.66 8 2 C4.7 2.33 1.4 2.66 -2 3 C-1.34 2.01 -0.68 1.02 0 0 Z " fill="#ABC25D" transform="translate(152,57)"/>
<path d="M0 0 C1.32 0.66 2.64 1.32 4 2 C4 3.32 4 4.64 4 6 C2.35 6 0.7 6 -1 6 C-0.67 4.02 -0.34 2.04 0 0 Z " fill="#F4F12C" transform="translate(172,44)"/>
<path d="M0 0 C0.66 0.33 1.32 0.66 2 1 C2 1.99 2 2.98 2 4 C1.34 4 0.68 4 0 4 C-0.66 5.32 -1.32 6.64 -2 8 C-2.6875 5.6875 -2.6875 5.6875 -3 3 C-1.5625 1.1875 -1.5625 1.1875 0 0 Z " fill="#E1B9D7" transform="translate(112,20)"/>
<path d="M0 0 C1.32 0.33 2.64 0.66 4 1 C2.68 1 1.36 1 0 1 C0 0.67 0 0.34 0 0 Z " fill="#F7FBEB" transform="translate(102,70)"/>
<path d="M0 0 C0.66 0 1.32 0 2 0 C1.67 0.99 1.34 1.98 1 3 C0.34 2.34 -0.32 1.68 -1 1 C-0.67 0.67 -0.34 0.34 0 0 Z " fill="#DBDAD9" transform="translate(182,48)"/>
<path d="M0 0 C1.32 0.33 2.64 0.66 4 1 C3.01 1.33 2.02 1.66 1 2 C0.67 1.34 0.34 0.68 0 0 Z " fill="#FDFFEF" transform="translate(167,76)"/>
<path d="M0 0 C0.66 0.66 1.32 1.32 2 2 C0.68 1.67 -0.64 1.34 -2 1 C-1.34 0.67 -0.68 0.34 0 0 Z " fill="#FFFFEC" transform="translate(126,75)"/>
<path d="M0 0 C0.66 0 1.32 0 2 0 C2 0.66 2 1.32 2 2 C1.34 2 0.68 2 0 2 C0 1.34 0 0.68 0 0 Z " fill="#FCFFEC" transform="translate(182,52)"/>
<path d="M0 0 C0.66 0.66 1.32 1.32 2 2 C1.67 2.165 1.67 2.165 0 3 C0 2.01 0 1.02 0 0 Z " fill="#FFFFED" transform="translate(174,3)"/>
<path d="M0 0 C3 1 3 1 3 1 Z " fill="#F4F4EF" transform="translate(219,61)"/>
<path d="M0 0 C0.33 0.66 0.66 1.32 1 2 C0.34 1.67 -0.32 1.34 -1 1 C-0.67 0.67 -0.34 0.34 0 0 Z " fill="#EDFBF7" transform="translate(139,19)"/>
<path d="M0 0 C0.66 0 1.32 0 2 0 C1.67 0.66 1.34 1.32 1 2 C0.67 1.34 0.34 0.68 0 0 Z " fill="#FAFFED" transform="translate(169,8)"/>
<path d="M0 0 C2 1 2 1 2 1 Z " fill="#F0F0F0" transform="translate(137,90)"/>
<path d="M0 0 C2 1 2 1 2 1 Z " fill="#FEFFF0" transform="translate(96,75)"/>
<path d="M0 0 C2 1 2 1 2 1 Z " fill="#FEFFEF" transform="translate(209,72)"/>
<path d="M0 0 C2 1 2 1 2 1 Z " fill="#FBFDEF" transform="translate(166,70)"/>
<path d="M0 0 C2 1 2 1 2 1 Z " fill="#FFFFEE" transform="translate(80,55)"/>
<path d="" fill="#EFFEFF" transform="translate(0,0)"/>
<path d="" fill="#ECFEFC" transform="translate(0,0)"/>
<path d="" fill="#E2E2E2" transform="translate(0,0)"/>
<path d="" fill="#EEEEEE" transform="translate(0,0)"/>
<path d="" fill="#EFEFEF" transform="translate(0,0)"/>
<path d="" fill="#E1E1E1" transform="translate(0,0)"/>
<path d="" fill="#EDEDED" transform="translate(0,0)"/>
<path d="" fill="#EAEAEA" transform="translate(0,0)"/>
<path d="" fill="#EEEEEE" transform="translate(0,0)"/>
<path d="" fill="#EDEDED" transform="translate(0,0)"/>
<path d="" fill="#F0F0F0" transform="translate(0,0)"/>
<path d="" fill="#F0F0F0" transform="translate(0,0)"/>
<path d="" fill="#ECECEC" transform="translate(0,0)"/>
<path d="" fill="#E9E9E9" transform="translate(0,0)"/>
<path d="" fill="#F0F0F0" transform="translate(0,0)"/>
<path d="" fill="#F0F0F0" transform="translate(0,0)"/>
<path d="" fill="#F0F0F0" transform="translate(0,0)"/>
<path d="" fill="#F0F0F0" transform="translate(0,0)"/>
<path d="" fill="#F0F0F0" transform="translate(0,0)"/>
<path d="" fill="#EEEEEE" transform="translate(0,0)"/>
<path d="" fill="#F0F1F3" transform="translate(0,0)"/>
<path d="" fill="#EFEFEF" transform="translate(0,0)"/>
<path d="" fill="#EDEDED" transform="translate(0,0)"/>
<path d="" fill="#F8FAED" transform="translate(0,0)"/>
<path d="" fill="#F2F3EE" transform="translate(0,0)"/>
<path d="" fill="#F2F0F5" transform="translate(0,0)"/>
<path d="" fill="#F0F2FE" transform="translate(0,0)"/>
<path d="" fill="#F4F7EE" transform="translate(0,0)"/>
<path d="" fill="#F7FFEF" transform="translate(0,0)"/>
<path d="" fill="#F4F7EC" transform="translate(0,0)"/>
<path d="" fill="#F0F0F2" transform="translate(0,0)"/>
<path d="" fill="#EBF3F5" transform="translate(0,0)"/>
<path d="" fill="#F0F5FB" transform="translate(0,0)"/>
<path d="" fill="#F8F8F0" transform="translate(0,0)"/>
<path d="" fill="#EFFAFE" transform="translate(0,0)"/>
<path d="" fill="#F1F1EF" transform="translate(0,0)"/>
<path d="" fill="#E8E2EE" transform="translate(0,0)"/>
<path d="" fill="#F6F5F0" transform="translate(0,0)"/>
<path d="" fill="#FCEDEA" transform="translate(0,0)"/>
<path d="" fill="#F3F6EF" transform="translate(0,0)"/>
<path d="" fill="#F1F4EB" transform="translate(0,0)"/>
<path d="" fill="#E8F2E9" transform="translate(0,0)"/>
<path d="" fill="#F3F0F7" transform="translate(0,0)"/>
<path d="" fill="#F0F4F5" transform="translate(0,0)"/>
<path d="" fill="#EFFDFE" transform="translate(0,0)"/>
<path d="" fill="#EDFBFC" transform="translate(0,0)"/>
<path d="" fill="#EEFDF8" transform="translate(0,0)"/>
<path d="" fill="#EFF9F1" transform="translate(0,0)"/>
<path d="" fill="#EFFFFC" transform="translate(0,0)"/>
<path d="" fill="#EBF4F1" transform="translate(0,0)"/>
</svg>
